<?xml version="1.0" encoding="UTF-8" standalone="no"?>
<!-- Created with Inkscape (http://www.inkscape.org/) -->

<svg
   version="1.1"
   id="svg2"
   xml:space="preserve"
   width="2289.1482"
   height="2648.144"
   viewBox="0 0 2289.1482 2648.144"
   sodipodi:docname="geodezyx_toolbox_logo.svg"
   inkscape:version="1.4.3 (fcd0343856, 2026-01-01)"
   xmlns:inkscape="http://www.inkscape.org/namespaces/inkscape"
   xmlns:sodipodi="http://sodipodi.sourceforge.net/DTD/sodipodi-0.dtd"
   xmlns="http://www.w3.org/2000/svg"
   xmlns:svg="http://www.w3.org/2000/svg"><defs
     id="defs6"><inkscape:path-effect
       effect="bend_path"
       id="path-effect1"
       is_visible="true"
       lpeversion="1"
       bendpath="m 325.80015,221.76846 c 260.40143,-278.381125 473.71631,-329.24702 696.38145,-327.71862 246.3994,1.69132 534.4326,86.53498 739.0226,415.63302"
       prop_scale="1"
       scale_y_rel="false"
       vertical="false"
       hide_knot="false"
       bendpath-nodetypes="csc" /><rect
       x="36.487282"
       y="-305.16635"
       width="2315.2837"
       height="806.03717"
       id="rect1" /><clipPath
       clipPathUnits="userSpaceOnUse"
       id="clipPath20"><path
         d="m 1907.156,1867.457 c 0,66.969 -103.594,128.844 -271.761,162.328 -168.168,33.485 -375.36,33.485 -543.528,0 -168.168,-33.484 -271.762,-95.359 -271.762,-162.328 0,-66.965 103.594,-128.844 271.762,-162.324 168.168,-33.485 375.36,-33.485 543.528,0 168.167,33.48 271.761,95.359 271.761,162.324 z"
         id="path18" /></clipPath><clipPath
       clipPathUnits="userSpaceOnUse"
       id="clipPath28"><path
         d="M 2.823988,51.675057 H 27.422677 V 76.261111 H 2.823988 Z"
         id="path26" /></clipPath><radialGradient
       fx="15.115"
       fy="63.965"
       cx="15.115"
       cy="63.965"
       r="12.289"
       gradientUnits="userSpaceOnUse"
       spreadMethod="pad"
       id="radialGradient34"><stop
         style="stop-opacity:1;stop-color:#ffffff"
         offset="0"
         id="stop30" /><stop
         style="stop-opacity:0;stop-color:#ffffff"
         offset="1"
         id="stop32" /></radialGradient><mask
       maskUnits="userSpaceOnUse"
       x="0"
       y="0"
       width="1"
       height="1"
       id="mask36"><g
         id="g42"><g
           clip-path="url(#clipPath28)"
           id="g40"><path
             d="M 2.823988,51.675057 H 27.422677 V 76.261111 H 2.823988 Z"
             style="fill:url(#radialGradient34);stroke:none"
             id="path38" /></g></g></mask><radialGradient
       fx="15.115"
       fy="63.965"
       cx="15.115"
       cy="63.965"
       r="12.289"
       gradientUnits="userSpaceOnUse"
       spreadMethod="pad"
       id="radialGradient50"><stop
         style="stop-opacity:1;stop-color:#000000"
         offset="0"
         id="stop46" /><stop
         style="stop-opacity:1;stop-color:#000000"
         offset="1"
         id="stop48" /></radialGradient><linearGradient
       x1="119.191"
       y1="89.129997"
       x2="116.965"
       y2="169.27901"
       gradientUnits="userSpaceOnUse"
       gradientTransform="matrix(9.782515,0,0,9.782515,247.10799,260.64081)"
       spreadMethod="pad"
       id="linearGradient68"><stop
         style="stop-opacity:1;stop-color:#ffe253"
         offset="0"
         id="stop64" /><stop
         style="stop-opacity:1;stop-color:#ffca1c"
         offset="1"
         id="stop66" /></linearGradient><clipPath
       clipPathUnits="userSpaceOnUse"
       id="clipPath80"><path
         d="M 0,0 H 1950 V 2055 H 0 Z"
         id="path78" /></clipPath><clipPath
       clipPathUnits="userSpaceOnUse"
       id="clipPath84"><path
         d="m 1675.07,1132.543 v 116.836 c -94.297,165.777 -273.429,166.098 -423.699,166.098 l -55.758,5.671 c -78.347,67.352 -80.843,175.438 -80.785,270.235 172.781,-192.793 357.086,-207.336 449.035,-206.922 183.492,0.801 269.907,-44.313 357.539,-143.578 -0.441,-1.938 0.446,-3.653 0,-5.633 -3.375,-22.113 -9.293,-45.734 -15.48,-70.383 -8.899,-35.488 -20.535,-66.734 -39.414,-90.086 -0.442,-0.441 -1.051,-0.941 -1.41,-1.383 0,0 -1.16,0 -1.379,0 -0.637,-0.773 -0.778,-2.074 -1.383,-2.793 -1.301,-0.941 -1.438,-1.937 -2.793,-2.793 -0.441,-0.441 -1.078,0.442 -1.383,0 -20.015,-12.972 -44.328,-22.656 -68.976,-26.75 -22.34,-3.691 -44.762,-6.507 -67.567,-8.445 h -46.449 z"
         id="path82" /></clipPath><clipPath
       clipPathUnits="userSpaceOnUse"
       id="clipPath88"><path
         d="M 60.096112,60.668903 H 142.69246 V 117.9139 H 60.096112 Z"
         id="path86" /></clipPath><linearGradient
       x1="94.693001"
       y1="112.511"
       x2="94.693001"
       y2="64.053001"
       gradientUnits="userSpaceOnUse"
       spreadMethod="pad"
       id="linearGradient94"><stop
         style="stop-opacity:1;stop-color:#ffffff"
         offset="0"
         id="stop90" /><stop
         style="stop-opacity:0.1649958;stop-color:#ffffff"
         offset="1"
         id="stop92" /></linearGradient><mask
       maskUnits="userSpaceOnUse"
       x="0"
       y="0"
       width="1"
       height="1"
       id="mask96"><g
         id="g102"><g
           clip-path="url(#clipPath88)"
           id="g100"><path
             d="M 60.096112,60.668903 H 142.69246 V 117.9139 H 60.096112 Z"
             style="fill:url(#linearGradient94);stroke:none"
             id="path98" /></g></g></mask><linearGradient
       x1="94.693001"
       y1="112.511"
       x2="94.693001"
       y2="64.053001"
       gradientUnits="userSpaceOnUse"
       spreadMethod="pad"
       id="linearGradient108"><stop
         style="stop-opacity:1;stop-color:#ffffff"
         offset="0"
         id="stop104" /><stop
         style="stop-opacity:1;stop-color:#ffffff"
         offset="1"
         id="stop106" /></linearGradient><clipPath
       clipPathUnits="userSpaceOnUse"
       id="clipPath138"><path
         d="M 0,0 H 1950 V 2055 H 0 Z"
         id="path136" /></clipPath><linearGradient
       x1="59.728001"
       y1="102"
       x2="142.62"
       y2="102"
       gradientUnits="userSpaceOnUse"
       gradientTransform="matrix(9.782515,0,0,9.782515,219.74621,221.5249)"
       spreadMethod="pad"
       id="linearGradient162"><stop
         style="stop-opacity:1;stop-color:#3778ae"
         offset="0"
         id="stop158" /><stop
         style="stop-opacity:1;stop-color:#366c99"
         offset="1"
         id="stop160" /></linearGradient><clipPath
       clipPathUnits="userSpaceOnUse"
       id="clipPath174"><path
         d="M 0,0 H 1950 V 2055 H 0 Z"
         id="path172" /></clipPath><clipPath
       clipPathUnits="userSpaceOnUse"
       id="clipPath178"><path
         d="m 1328.172,813.309 c -39.07,0.945 -76.586,5.441 -109.797,11.257 -111.813,19.567 -130.906,61.024 -130.906,136.543 l -8.16,132.329 -91.786,-0.01 c -76.793,0 -143.66,45.355 -164.691,132.316 -14.277,58.672 -20.742,104.609 -18.301,153.434 173.946,-197.153 360.59,-211.563 453.262,-211.145 183.484,0.801 269.902,-44.308 357.535,-143.578 v -63.344 c 0,-70.918 -60.609,-124.699 -132.316,-136.539 -51.063,-8.426 -104.606,-12.48 -154.84,-11.265 z"
         id="path176" /></clipPath><clipPath
       clipPathUnits="userSpaceOnUse"
       id="clipPath182"><path
         d="M 59.724294,60.462479 H 142.72953 V 118.42304 H 59.724294 Z"
         id="path180" /></clipPath><linearGradient
       x1="94.693001"
       y1="112.511"
       x2="94.693001"
       y2="64.053001"
       gradientUnits="userSpaceOnUse"
       spreadMethod="pad"
       id="linearGradient188"><stop
         style="stop-opacity:1;stop-color:#ffffff"
         offset="0"
         id="stop184" /><stop
         style="stop-opacity:0.1649958;stop-color:#ffffff"
         offset="1"
         id="stop186" /></linearGradient><mask
       maskUnits="userSpaceOnUse"
       x="0"
       y="0"
       width="1"
       height="1"
       id="mask190"><g
         id="g196"><g
           clip-path="url(#clipPath182)"
           id="g194"><path
             d="M 59.724294,60.462479 H 142.72953 V 118.42304 H 59.724294 Z"
             style="fill:url(#linearGradient188);stroke:none"
             id="path192" /></g></g></mask><linearGradient
       x1="94.693001"
       y1="112.511"
       x2="94.693001"
       y2="64.053001"
       gradientUnits="userSpaceOnUse"
       spreadMethod="pad"
       id="linearGradient202"><stop
         style="stop-opacity:1;stop-color:#ffffff"
         offset="0"
         id="stop198" /><stop
         style="stop-opacity:1;stop-color:#ffffff"
         offset="1"
         id="stop200" /></linearGradient><clipPath
       clipPathUnits="userSpaceOnUse"
       id="clipPath232"><path
         d="M 0,0 H 1950 V 2055 H 0 Z"
         id="path230" /></clipPath></defs><sodipodi:namedview
     id="namedview4"
     pagecolor="#ffffff"
     bordercolor="#666666"
     borderopacity="1.0"
     inkscape:pageshadow="2"
     inkscape:pageopacity="0.0"
     inkscape:pagecheckerboard="0"
     showgrid="false"
     inkscape:zoom="0.30147492"
     inkscape:cx="970.22996"
     inkscape:cy="862.42663"
     inkscape:window-width="1920"
     inkscape:window-height="1042"
     inkscape:window-x="1920"
     inkscape:window-y="0"
     inkscape:window-maximized="1"
     inkscape:current-layer="g10"
     inkscape:showpageshadow="2"
     inkscape:deskcolor="#d1d1d1"
     showguides="false" /><g
     id="g8"
     inkscape:groupmode="layer"
     inkscape:label="geodezyx_toolbox_logo"
     transform="matrix(1.3333333,0,0,1.3333333,-309.5982,18.622481)"><g
       id="g10"><path
         d="m 956.973,1765.891 c -29.27,-0.727 -66.614,-4.313 -97.082,-9.321 -174.649,-28.699 -332.68,-119.75 -448.969,-258.668 -50.875,-60.777 -93.93,-133.183 -123.754,-208.125 -39.234,-98.586 -57.711,-203.859 -54.641,-311.336 2.926,-102.617 24.77,-199.476 66.368,-294.289 6.957,-15.855 26.222,-53.84 35.183,-69.375 26.254,-45.5 55.899,-86.972 90.07,-126 20.946,-23.918 57.043,-59.101 82.45,-80.355 110.34,-92.297 244.644,-150.383 385.5,-166.723 59.238,-6.871 123.98,-6.34 182.25,1.5 157.207,21.153 303.347,93.106 418.023,205.817 130.641,128.406 210.164,296.589 227.32,480.761 1.504,16.129 3.825,61.848 3.254,62.383 -0.425,0.399 -70.343,1.371 -70.722,0.992 -0.164,-0.164 -0.285,-15.914 -0.739,-24.769 -2.488,-48.84 -9.113,-93.852 -20.691,-140.606 -1.43,-5.773 -2.852,-11.105 -3.156,-11.847 -0.422,-1.024 -1.809,1.039 -5.797,8.625 -29.57,56.25 -69.789,115.675 -112.07,165.593 -16.02,18.914 -43.118,48.434 -54.61,59.489 l -2.972,2.863 1.332,5.762 c 17.109,73.918 29.191,173.031 29.203,239.578 0,6.91 0.281,12.562 0.625,12.562 1.199,0 30.015,-31.875 44.074,-48.75 48.894,-58.707 90.762,-128.379 119.199,-198.375 l 3.961,-9.75 0.82,-16.597 c 0.453,-9.125 0.821,-22.711 0.821,-30.188 v -13.59 h 23.882 c 13.133,0 29.047,-0.222 35.36,-0.496 l 11.48,-0.496 -0.453,26.934 c -0.828,49.484 -5.484,91.683 -15.574,141.164 -21.773,106.801 -67.063,209.613 -131.195,297.851 -59.743,82.2 -136.176,152.383 -222,203.848 -33.633,20.168 -71.446,38.836 -107.586,53.113 -92.391,36.504 -188.129,53.328 -289.164,50.821 z m 28.875,-73.114 c -15.438,-7.902 -43.43,-24.086 -60.75,-35.125 l -9,-5.734 -10.875,0.93 c -26.387,2.265 -37.106,2.718 -73.125,3.086 -34.493,0.355 -50.496,0.01 -78,-1.684 l -6,-0.371 3,1.211 c 6.422,2.59 29.914,10.312 43.125,14.172 42.988,12.562 87.136,20.625 131.386,23.992 21.231,1.613 21.102,1.609 44.114,1.723 l 20.625,0.105 z m 155.625,-17.882 c 9.781,-2.422 28.254,-7.868 42.375,-12.485 18.949,-6.199 49.941,-18.023 51.609,-19.691 0.363,-0.364 -5.672,-14.481 -13.742,-32.141 l -14.387,-31.492 -8.363,3.371 c -28.324,11.414 -66.539,24.613 -97.242,33.586 -15.508,4.531 -58.743,15.551 -69.375,17.684 l -4.5,0.906 11.25,5.484 c 13.664,6.668 33.625,15.238 51.707,22.203 17.437,6.715 41.73,14.856 43.168,14.461 0.621,-0.168 3.996,-1.015 7.5,-1.886 z m 168.992,-69.508 c 22.887,-13.352 58.828,-37.637 73.047,-49.36 1.648,-1.359 10.586,-42.328 14.804,-67.875 1.055,-6.394 2.102,-12.418 2.321,-13.386 0.336,-1.477 -1.282,-0.61 -9.942,5.324 -31.734,21.73 -68.812,43.863 -103.91,62.027 -8.144,4.215 -14.812,7.809 -14.812,7.988 0,0.176 5.277,11.875 11.73,25.997 6.449,14.121 12.68,27.785 13.844,30.363 1.164,2.578 2.32,4.687 2.574,4.687 0.254,0 4.91,-2.593 10.344,-5.765 z m -484.367,-22.508 c -37.493,-34.156 -61.223,-58.746 -89.887,-93.137 -24.125,-28.945 -49.305,-63.828 -70.441,-97.59 l -6.336,-10.125 -31.043,0.262 c -72.621,0.613 -141.93,-4.48 -208.672,-15.34 -9.008,-1.465 -16.512,-2.527 -16.68,-2.363 -0.379,0.383 9.301,15.844 19.18,30.633 33.027,49.441 75.191,97.168 120.711,136.636 l 14.113,12.235 13.777,4.242 c 65.59,20.195 131.426,32.086 198.278,35.816 21.515,1.2 21.906,1.211 41.625,1.344 l 18.375,0.121 z m 126,-6.637 c 70.078,-9.863 142.757,-29.086 211.742,-55.996 10.683,-4.168 13.668,-5.621 13.41,-6.539 -0.332,-1.203 -99.516,-218.453 -99.961,-218.957 -0.133,-0.148 -9.457,3.188 -20.715,7.414 -94.629,35.539 -197.433,60.231 -298.992,71.809 l -18.227,2.078 9.028,12.937 c 50.879,72.953 111.012,135.157 177.308,183.426 7.168,5.219 9.231,6.371 10.875,6.086 1.118,-0.195 8.106,-1.211 15.532,-2.258 z m 304.062,-97.937 c 47.863,-24.852 91.926,-52.895 135.438,-86.196 7.425,-5.679 14.781,-11.457 16.343,-12.832 l 2.844,-2.5 0.703,-15.375 c 2.352,-51.543 -0.3,-115.695 -7.144,-172.843 -3.059,-25.524 -11.504,-78.539 -12.703,-79.739 -0.161,-0.16 -6.793,5.004 -14.735,11.477 -63.984,52.117 -137.933,99.105 -215.019,136.633 -10.61,5.168 -19.371,9.465 -19.469,9.55 -0.133,0.118 92.801,203.801 99.004,216.985 0.433,0.93 0.965,1.687 1.172,1.687 0.211,0 6.316,-3.082 13.566,-6.847 z m 223.047,-12.465 c 32.715,-37.36 62.25,-79.602 86.348,-123.504 6.5,-11.844 17.953,-34.34 19.277,-37.863 0.91,-2.43 1.141,-2.672 -9.551,10.023 -21.765,25.84 -61.859,67.133 -85.117,87.66 l -10.91,9.625 -1.297,14 c -1.277,13.809 -4.562,41.297 -5.414,45.309 -0.242,1.133 -0.281,2.062 -0.09,2.062 0.195,0 3.235,-3.289 6.754,-7.312 z M 620.223,1311.266 c 0,-0.348 -3,-6.844 -6.664,-14.438 -35.731,-73.965 -64.016,-159.16 -81.512,-245.488 -1.414,-6.977 -2.684,-12.797 -2.82,-12.938 -0.266,-0.261 -4.754,-0.547 -28.254,-1.785 -60.227,-3.172 -128.938,-13.91 -184.633,-28.855 -6.879,-1.848 -12.703,-3.36 -12.938,-3.36 -0.679,0 -0.5,17.825 0.332,33 3.543,64.817 14.731,125.356 34.114,184.602 9.148,27.965 22.175,61.094 24.261,61.707 0.684,0.203 7.653,1.73 15.489,3.398 65.722,13.985 133.812,22.075 201.953,23.989 29.644,0.836 40.672,0.879 40.672,0.168 z m 109.125,-5.411 c 104.035,-10.285 206.574,-33.996 303,-70.07 7.425,-2.777 13.906,-5.269 14.402,-5.539 0.617,-0.332 -17.215,-40.125 -56.848,-126.851 -31.761,-69.504 -58.554,-128.133 -59.539,-130.29 l -1.793,-3.921 -5.109,1.933 c -61.715,23.352 -132.293,42.211 -200.113,53.473 -36.387,6.043 -67.465,9.426 -114.606,12.484 l -7.355,0.477 0.472,2.363 c 17.395,86.652 49.176,177.297 88.766,253.141 l 7.973,15.281 7.875,-0.5 c 4.332,-0.274 14.625,-1.164 22.875,-1.981 z m 408.777,-116.152 c 75.496,-37.625 140.855,-79.891 201.695,-130.43 16.399,-13.621 33.403,-28.882 33.403,-29.976 0,-0.637 -2.227,-8.945 -4.95,-18.465 -19.613,-68.594 -49.054,-142.477 -80.757,-202.668 -14.254,-27.059 -24.321,-44.723 -25.286,-44.367 -0.343,0.125 -6.14,5.141 -12.878,11.144 -58.223,51.864 -116.047,92.766 -187.379,132.543 -11.68,6.512 -52.012,27.02 -61.672,31.356 l -6.543,2.937 59.387,129.938 c 32.664,71.465 59.753,129.937 60.199,129.937 0.445,0 11.597,-5.375 24.781,-11.949 z m 301.598,-226.738 c 63.347,-71.031 114.437,-151.223 150.316,-235.934 l 3.602,-8.496 -2.676,-6.129 c -1.469,-3.371 -6.113,-13.215 -10.317,-21.879 -25.308,-52.168 -58.898,-103.304 -97.046,-147.75 -6.641,-7.738 -28.657,-31.875 -29.075,-31.875 -0.105,0 -3.484,6.16 -7.507,13.688 -33.883,63.379 -74.934,121.93 -123.954,176.801 -8.281,9.269 -8.953,10.238 -8.05,11.625 3.246,4.992 17.691,30.093 25.039,43.511 26.769,48.891 50.941,102.387 70.699,156.496 6.258,17.133 16,46.036 18.355,54.442 0.723,2.578 1.563,4.687 1.868,4.687 0.304,0 4.242,-4.132 8.746,-9.187 z M 517.918,962.59 c -4.895,-41.379 -7.184,-81.848 -7.184,-126.938 0,-37.851 0.961,-60.023 4.211,-96.957 0.68,-7.746 1.071,-14.25 0.867,-14.453 -0.203,-0.203 -5.656,-1.199 -12.117,-2.211 -20.066,-3.14 -43.633,-8.269 -60.847,-13.238 -17.43,-5.027 -52.946,-17.852 -65.301,-23.574 -0.453,-0.211 -3.152,4.508 -6.141,10.719 -33.144,68.921 -55.304,146.746 -64.23,225.578 -0.606,5.355 -1.02,9.82 -0.918,9.922 0.554,0.554 26.176,7.582 39.09,10.722 56.523,13.738 111.336,21.641 170.918,24.633 l 2.164,0.109 z m 108.305,2.375 c 84.379,-6.153 168.82,-23.805 251.625,-52.598 16.656,-5.793 21.023,-7.515 20.863,-8.226 -0.203,-0.895 -99.074,-217.075 -99.457,-217.457 -0.176,-0.176 -3.152,0.738 -6.613,2.035 -62.411,23.347 -123.539,36.023 -187.758,38.937 -17.391,0.789 -18.371,0.989 -18.399,3.731 -0.004,0.609 -0.679,8.879 -1.492,18.375 -2.308,26.863 -3.015,41.277 -3.512,71.64 -0.738,45.012 1.606,90.18 7.016,135.286 l 1.25,10.41 10.551,-0.504 c 5.805,-0.278 17.469,-1.012 25.926,-1.629 z M 991.074,864.574 c 76.895,-38.269 142.563,-82.113 205.149,-136.969 14.152,-12.406 26.55,-24.007 26.843,-25.125 0.36,-1.355 -17.878,-26.484 -34.257,-47.203 -32.344,-40.91 -72.641,-82.949 -110.621,-115.402 -9.836,-8.406 -23.993,-19.937 -25.793,-21.012 -0.633,-0.379 -5.809,4.071 -15.375,13.211 -21.665,20.703 -29.559,27.75 -47.797,42.656 -35.164,28.75 -82.223,59.981 -117.973,78.297 -5.082,2.602 -7.23,4.094 -7.031,4.875 0.156,0.618 22.695,50.149 50.082,110.063 33.203,72.637 50.164,108.937 50.898,108.937 0.606,0 12.25,-5.547 25.875,-12.328 z M 628.098,655.219 c 37.91,-3.485 77.629,-11.867 115.875,-24.461 10.859,-3.574 24.757,-8.613 25.324,-9.18 0.293,-0.289 -91.195,-200.762 -92.016,-201.633 -0.301,-0.32 -3.785,6.09 -7.738,14.25 -26.711,55.117 -48.855,118.239 -63.223,180.207 -3.015,13.008 -8.597,40.184 -8.597,41.856 0,1.242 8.785,0.941 30.375,-1.039 z M 528.676,640.09 c 12.933,-68.617 33.465,-136.82 59.625,-198.074 2.351,-5.508 4.14,-10.145 3.98,-10.309 -0.355,-0.352 -23.07,16.699 -32.058,24.066 -56.965,46.7 -102.899,97.68 -143.426,159.172 -5.914,8.973 -6.899,7.391 8.254,13.278 19.344,7.511 42.234,14.39 63.922,19.207 9.711,2.156 31.273,5.851 34.535,5.918 l 2.656,0.054 z m 760.847,-8.063 c 39.473,-46.972 73.149,-97.73 101.102,-152.379 l 9.656,-18.875 -7.343,-5.941 c -53.778,-43.516 -117.016,-79.773 -182.86,-104.844 -12.59,-4.797 -30.191,-10.836 -31.574,-10.836 -0.496,0 -4.43,6.836 -8.738,15.188 -17.887,34.687 -36.516,64.215 -61.02,96.738 -5.512,7.313 -10.023,13.43 -10.023,13.594 0,0.164 6.668,5.848 14.812,12.629 21.414,17.828 34.223,29.433 54.461,49.351 34.859,34.305 65.879,70.028 95.332,109.77 l 10.477,14.14 2.504,-2.89 c 1.375,-1.594 7.324,-8.633 13.214,-15.645 z m -432.3,-51.937 c 44.156,-25.379 90.355,-59.906 124.605,-93.117 10.309,-9.996 10.707,-10.496 9.277,-11.571 -2.238,-1.679 -23.136,-14.156 -32.39,-19.336 C 901.73,424.164 840.07,400.34 776.598,385.699 c -17.711,-4.086 -39.692,-8.23 -39.969,-7.531 -0.121,0.301 21.781,48.691 48.668,107.527 l 48.891,106.977 7.957,-4.246 c 4.375,-2.332 11.16,-6.086 15.078,-8.336 z m 196.808,-173.813 c 18.668,-24.875 35.449,-51.199 49.309,-77.351 4.324,-8.164 4.387,-8.36 2.719,-8.778 -4.106,-1.023 -33.477,-5.82 -44.086,-7.195 -32.043,-4.156 -59.383,-5.617 -94.875,-5.066 -36.524,0.562 -62.551,2.769 -95.563,8.101 -14.832,2.391 -42.551,7.95 -44.172,8.852 -0.59,0.332 1.469,1.222 5.145,2.23 3.375,0.926 12.285,3.664 19.804,6.09 63.083,20.344 119.215,46.473 174.333,81.145 l 13.953,8.781 2.496,-2.781 c 1.371,-1.528 6.293,-7.84 10.937,-14.028 z"
         style="fill:#00007e;fill-opacity:1;fill-rule:nonzero;stroke:none"
         id="path12" /><g
         id="g14"><g
           id="g16"
           clip-path="url(#clipPath20)"><g
             id="g22"
             transform="matrix(44.23,0,0,15.252549,695.095,891.82364)"><g
               id="g24" /><g
               id="g44"
               mask="url(#mask36)"><path
                 d="m 1907.156,1867.457 c 0,66.969 -103.594,128.844 -271.761,162.328 -168.168,33.485 -375.36,33.485 -543.528,0 -168.168,-33.484 -271.762,-95.359 -271.762,-162.328 0,-66.965 103.594,-128.844 271.762,-162.324 168.168,-33.485 375.36,-33.485 543.528,0 168.167,33.48 271.761,95.359 271.761,162.324 z"
                 style="fill:url(#radialGradient50);stroke:none"
                 id="path52" /></g></g></g></g><g
         id="g54"><g
           id="g56"><g
             id="g62"><path
               d="m 1642.289,1796.984 c 0,75.52 -65.543,113.77 -132.062,132.848 -100.079,28.758 -180.391,24.356 -264.028,0 -69.851,-20.352 -132.066,-61.93 -132.066,-132.848 v -249.16 c 0,-71.707 59.769,-132.945 132.066,-132.945 l 259.805,-16.891 c 87.945,0 145.422,-54.894 145.422,-144.992 l 23.926,-120.441 h 99 c 76.89,0 113.089,57.133 132.066,132.843 26.414,105.168 27.582,183.821 0,265.797 -26.707,79.629 -55.285,132.844 -132.066,132.844 h -396.09 v -0.551 c 227.847,0.551 264.027,-91.679 264.027,133.465 z"
               style="fill:url(#linearGradient68);stroke:none"
               id="path70" /></g></g></g><path
         d="m 1477.258,1813.516 c 0,-27.489 22.207,-49.793 49.5,-49.793 27.64,0 49.496,22.304 49.496,49.793 0,27.586 -22.106,49.89 -49.496,49.89 -27.293,0 -49.5,-22.304 -49.5,-49.89 z"
         style="fill:#ffffff;fill-opacity:1;fill-rule:nonzero;stroke:none"
         id="path72" /><g
         id="g74"><g
           id="g76" /><g
           id="g126"><g
             clip-path="url(#clipPath80)"
             opacity="0.837"
             id="g124"><g
               id="g122"><g
                 id="g120"><g
                   clip-path="url(#clipPath84)"
                   id="g118"><g
                     transform="matrix(9.782515,0,0,9.782515,526.10889,538.50555)"
                     id="g116"><g
                       id="g110" /><g
                       mask="url(#mask96)"
                       id="g114"><path
                         d="m 1675.07,1132.543 v 116.836 c -94.297,165.777 -273.429,166.098 -423.699,166.098 l -55.758,5.671 c -78.347,67.352 -80.843,175.438 -80.785,270.235 172.781,-192.793 357.086,-207.336 449.035,-206.922 183.492,0.801 269.907,-44.313 357.539,-143.578 -0.441,-1.938 0.446,-3.653 0,-5.633 -3.375,-22.113 -9.293,-45.734 -15.48,-70.383 -8.899,-35.488 -20.535,-66.734 -39.414,-90.086 -0.442,-0.441 -1.051,-0.941 -1.41,-1.383 0,0 -1.16,0 -1.379,0 -0.637,-0.773 -0.778,-2.074 -1.383,-2.793 -1.301,-0.941 -1.438,-1.937 -2.793,-2.793 -0.441,-0.441 -1.078,0.442 -1.383,0 -20.015,-12.972 -44.328,-22.656 -68.976,-26.75 -22.34,-3.691 -44.762,-6.507 -67.567,-8.445 h -46.449 z"
                         style="fill:url(#linearGradient108);stroke:none"
                         id="path112" /></g></g></g></g></g></g></g></g><g
         id="g128"><path
           d="m 1655.52,1796.969 c 0,75.523 -78.774,113.781 -145.293,132.855 -100.071,28.75 -180.375,24.356 -264.028,0 -69.855,-20.344 -132.715,-61.922 -132.828,-132.828 l -0.441,-255.926 c -0.278,-84.949 63.636,-138.492 134.043,-138.218 l 234.054,0.414 c 89.84,0 177.196,-91.223 176.946,-181.067 v -89.48 h 116.379 c 76.89,0 113.066,57.14 132.054,132.855 26.43,105.156 27.645,183.805 0,265.793 -26.703,79.617 -55.285,142.301 -132.054,142.313 h -396.133 v -0.555 l 277.265,0.941 z"
           style="fill:none;stroke:#bb9400;stroke-width:45.0593;stroke-linecap:butt;stroke-linejoin:miter;stroke-miterlimit:4;stroke-dasharray:none;stroke-opacity:1"
           id="path130" /></g><g
         id="g132"><g
           id="g134" /><g
           id="g146"><g
             clip-path="url(#clipPath138)"
             opacity="0.384"
             id="g144"><g
               id="g142"><path
                 d="m 1680.574,1155.066 v 66.161 c 0,102.957 -96.656,203.89 -206.801,203.89 h -228.035 c -78.8,0 -111.082,59.625 -110.691,122.68 l 1.547,249.152 c 0.277,28.875 11.058,50.406 31.738,68.973 20.676,18.562 51.766,32.703 84.457,42.23 80.621,23.477 154.145,27.707 250.559,0 31.312,-8.976 72.964,-25.988 93.922,-44.129 20.957,-18.148 36.152,-35.828 36.152,-67.074 v -100.344 h -277.875 v -46.425 l 419.473,1.382 c 33.195,0 49.425,-13.058 65.914,-32.16 16.488,-19.101 30.82,-56.582 43.882,-95.535 26.137,-77.668 25.809,-150.633 0,-253.379 -8.992,-35.875 -22.05,-64.855 -39.414,-84.457 -17.359,-19.601 -37.511,-30.965 -70.382,-30.965 z m 45.043,45.043 h 49.391 c 14.383,0 33.152,11.594 36.601,15.485 10.02,11.316 21.563,34.238 29.563,66.156 24.59,97.902 24.644,158.996 1.383,228.039 -12.489,37.234 -25.45,72.266 -35.188,82.93 -8.805,9.386 -27.644,14.078 -32.379,14.078 l -132.32,-1.41 h -332.203 v 136.515 h 277.875 v 55.289 c 0,20.098 -26.902,32.59 -31.535,36.598 -13.469,11.664 -37.34,23.106 -64.75,30.965 -89.094,25.609 -152.039,21.726 -226.633,0 -28.227,-8.223 -52.692,-20.285 -66.535,-32.051 -13.844,-11.765 -14.696,-21.398 -17.246,-35.523 l -1.547,-249.149 c -0.36,-55.91 17.847,-77.636 65.648,-77.636 h 228.035 c 136.098,0 251.844,-120.254 251.844,-248.938 0,-7.113 0,-14.234 0,-21.348 z"
                 style="fill:#ffffff;fill-opacity:1;fill-rule:nonzero;stroke:none"
                 id="path140" /></g></g></g></g><g
         id="g148"><g
           id="g150"><g
             id="g156"><path
               d="m 1086.77,960.496 c 0,-75.519 20.246,-116.609 132.058,-136.176 75.918,-13.304 173.254,-14.965 264.035,0 71.707,11.84 132.067,65.25 132.067,136.176 v 249.164 c 0,73.074 -58.602,132.942 -132.067,132.942 l -239.453,13.234 c -89.605,0 -182.144,78.289 -182.144,164.676 l -7.563,104.41 h -90.781 c -76.793,0 -121.5,-55.367 -140.281,-132.848 -25.336,-104.078 -24.258,-166.105 0,-265.785 21.035,-86.969 88.242,-132.851 157.57,-132.851 h 99.098 c 0,0 247.269,-0.965 0,-0.883 V 960.496 Z"
               style="fill:url(#linearGradient162);stroke:none"
               id="path164" /></g></g></g><path
         d="m 1152.801,943.961 c 0,-27.645 22.113,-49.891 49.5,-49.891 27.289,0 49.5,22.301 49.5,49.891 0,27.488 -22.211,49.793 -49.5,49.793 -27.391,0 -49.5,-22.305 -49.5,-49.793 z"
         style="fill:#ffffff;fill-opacity:1;fill-rule:nonzero;stroke:none"
         id="path166" /><g
         id="g168"><g
           id="g170" /><g
           id="g220"><g
             clip-path="url(#clipPath174)"
             opacity="0.377"
             id="g218"><g
               id="g216"><g
                 id="g214"><g
                   clip-path="url(#clipPath178)"
                   id="g212"><g
                     transform="matrix(9.782515,0,0,9.782515,219.74621,221.5249)"
                     id="g210"><g
                       id="g204" /><g
                       mask="url(#mask190)"
                       id="g208"><path
                         d="m 1328.172,813.309 c -39.07,0.945 -76.586,5.441 -109.797,11.257 -111.813,19.567 -130.906,61.024 -130.906,136.543 l -8.16,132.329 -91.786,-0.01 c -76.793,0 -143.66,45.355 -164.691,132.316 -14.277,58.672 -20.742,104.609 -18.301,153.434 173.946,-197.153 360.59,-211.563 453.262,-211.145 183.484,0.801 269.902,-44.308 357.535,-143.578 v -63.344 c 0,-70.918 -60.609,-124.699 -132.316,-136.539 -51.063,-8.426 -104.606,-12.48 -154.84,-11.265 z"
                         style="fill:url(#linearGradient202);stroke:none"
                         id="path206" /></g></g></g></g></g></g></g></g><g
         id="g222"><path
           d="m 1217.008,830.77 c 100.074,-28.762 180.39,-24.36 264.027,0 69.848,20.347 132.102,61.921 132.063,132.847 v 269.016 c 0,37.765 -54.586,125.203 -131.93,125.203 h -245.996 c -69.063,0 -165.781,75.238 -165.781,165.34 v 104.871 H 953.012 c -76.891,0 -113.09,-57.133 -132.067,-132.852 -26.414,-105.156 -27.644,-183.808 0,-265.789 26.707,-79.629 55.289,-142.301 132.067,-142.301 h 396.093 v 0.528 l -277.269,-0.942 0.527,-134.714 c -0.718,-55.192 66.746,-98.204 144.641,-121.207 v 0 z"
           style="fill:none;stroke:#274e70;stroke-width:45.0593;stroke-linecap:butt;stroke-linejoin:miter;stroke-miterlimit:4;stroke-dasharray:none;stroke-opacity:1"
           id="path224" /></g><g
         id="g226"><g
           id="g228" /><g
           id="g240"><g
             clip-path="url(#clipPath232)"
             opacity="0.165"
             id="g238"><g
               id="g236"><path
                 d="m 1046.66,1605.531 v -77.293 c 0,-102.961 93.86,-194.297 194.781,-194.297 h 240.055 c 59.57,0 111.238,-61.953 110.692,-121.14 l -2.305,-249.153 c -0.27,-28.875 -10.289,-50.406 -30.973,-68.972 -20.672,-18.567 -51.765,-32.707 -84.457,-42.231 -80.625,-23.48 -154.144,-27.707 -250.558,0 -31.309,8.981 -72.969,25.985 -93.922,44.133 -20.961,18.145 -36.149,35.824 -36.149,67.07 v 100.344 h 277.871 v 46.449 l -419.472,-1.41 c -33.172,0 -49.426,13.063 -65.914,32.164 -16.489,19.094 -30.821,56.578 -43.883,95.532 -26.137,77.668 -25.805,150.632 0,253.375 8.992,35.875 22.051,64.855 39.414,84.457 17.363,19.605 37.515,30.968 70.383,30.968 h 94.437 v 0 z m -45.047,-45.047 h -49.39 c -14.375,0 -33.172,-11.593 -36.598,-15.48 -10.023,-11.316 -21.566,-34.242 -29.566,-66.16 -24.586,-97.903 -24.641,-158.989 -1.395,-228.035 12.488,-37.235 25.445,-72.266 35.191,-82.653 8.801,-9.383 27.391,-14.078 32.375,-14.078 l 464.52,1.41 v -136.543 h -277.871 v -55.289 c 0,-20.097 26.902,-32.59 31.531,-36.597 13.473,-11.661 37.348,-23.106 64.754,-30.961 89.094,-25.602 152.043,-21.723 226.633,0 28.23,8.226 52.691,20.289 66.156,32.379 4.793,3.734 7.317,8.218 11.274,12.664 5.492,6.55 4.289,15.211 5.558,22.523 v 249.152 c 0,34.161 -29.203,76.094 -63.34,76.094 h -240.054 c -126.879,0 -239.829,110.656 -239.829,239.344 0,10.711 0,32.23 0,32.23 z"
                 style="fill:#ffffff;fill-opacity:1;fill-rule:nonzero;stroke:none"
                 id="path234" /></g></g></g></g><text
         xml:space="preserve"
         transform="matrix(0.75000002,0,0,0.75000002,0,-8.437243e-5)"
         id="text1"
         style="font-style:italic;font-variant:normal;font-weight:bold;font-stretch:normal;font-family:GeodezyxNFW01-Regular;-inkscape-font-specification:'GeodezyxNFW01-Regular Bold Italic';writing-mode:lr-tb;direction:ltr;white-space:pre;shape-inside:url(#rect1);fill:#000000" /><path
         d="M 339.12788,83.854265 C 363.82607,60.696095 389.46505,38.24065 416.14384,16.71998 l 80.83551,100.20209 c 4.85335,6.01611 8.66855,12.534 11.49756,19.5137 2.88445,7.04811 4.79789,14.27668 5.77716,21.67021 0.85094,7.38688 0.85109,14.8271 0.0223,22.32843 -0.82891,7.50242 -2.49503,14.85059 -4.99762,22.07213 -2.56087,7.15662 -5.944,14.00224 -10.16851,20.5791 -4.29305,6.6395 -9.40922,12.7587 -15.38713,18.40628 -5.23917,4.94965 -10.86067,9.25264 -16.89737,12.92351 -6.09763,3.60761 -12.41759,6.57998 -18.98217,8.91747 -6.6263,2.27515 -13.39941,3.88044 -20.3328,4.80832 -6.99609,0.86642 -13.95703,0.98154 -20.887,0.32671 17.9401,-18.67262 36.19038,-36.83941 54.81312,-54.35437 z M 447.84562,215.55006 c -9.27491,8.0103 -19.31706,14.11675 -30.26055,18.35093 -10.9468,4.36361 -21.9384,6.81158 -33.02967,7.28995 -11.15828,0.54889 -22.02312,-0.89866 -32.59568,-4.4239 -10.50633,-3.46419 -19.89921,-8.98541 -28.11588,-16.67044 -5.45597,-5.10295 -9.98983,-10.87203 -13.57133,-17.33257 -3.5872,-6.32465 -6.23289,-13.13803 -7.90472,-20.44883 -1.67931,-7.17424 -2.36274,-14.68169 -2.0189,-22.51604 0.33429,-7.69746 1.64333,-15.48099 3.94808,-23.33139 2.3673,-7.78843 5.71241,-15.43849 10.04328,-22.91882 4.39242,-7.4174 9.74846,-14.458008 16.05815,-21.079119 z M 478.31702,75.838034 C 473.35873,69.56661 469.57459,62.814732 467.02594,55.542692 464.47785,48.2723 463.08495,40.716615 462.90191,32.8695 c -0.18301,-7.845765 0.77222,-15.817038 2.90921,-23.8935831 1.29166,-4.7228978 2.9619,-9.40051159 5.01508,-14.0253973 1.43277,-3.2190605 3.05213,-6.4120336 4.85946,-9.5751166 4.40717,-7.713159 9.87713,-15.047494 16.40495,-21.938359 6.48564,-6.755621 13.96168,-12.865152 22.38649,-18.252827 8.42585,-5.388339 17.23413,-9.692341 26.34073,-12.884325 9.05651,-3.05955 18.09419,-4.976862 27.03648,-5.759193 8.94321,-0.782413 17.62391,-0.490303 25.99287,0.849251 8.3149,1.46848 16.00605,3.991961 23.06575,7.517248 6.96573,3.574425 13.206,8.089521 18.75555,13.495971 5.45675,5.453583 9.87611,11.80646 13.3495,19.008228 l 7.61357,15.786032 C 626.2866,-2.1674566 596.86826,14.505437 568.42367,32.794946 l 5.42038,8.431285 C 601.973,23.13774 631.03475,6.661281 660.98215,-7.7819834 l 25.18773,52.2244614 c -27.15657,13.096577 -53.68729,28.129407 -79.54748,44.699298 -6.99015,4.47893 -14.20281,8.04268 -21.72214,10.708715 -7.59472,2.717779 -15.2751,4.605119 -23.09344,5.656359 -3.18469,0.46032 -6.36809,0.77197 -9.55256,0.93357 -4.58834,0.23804 -9.17736,0.16555 -13.77254,-0.22239 -7.78921,-0.65758 -15.2743,-2.1892 -22.45917,-4.64202 C 508.76181,99.183162 501.90311,95.845915 495.46806,91.515997 489.76997,86.27228 484.05287,81.046335 478.31702,75.838034 Z M 734.79155,-161.05428 c 9.64761,-2.31557 19.19835,-3.45625 28.55743,-3.44109 9.27203,0.12875 18.12671,1.24007 26.50891,3.29052 8.29293,2.16109 15.99249,5.2402 23.07159,9.18724 7.07972,3.94738 13.28768,8.63285 18.64189,13.99844 5.26541,5.47265 9.6076,11.54483 13.07689,18.17646 3.36646,6.65038 5.62425,13.71586 6.86117,21.172875 1.25113,7.542696 1.40358,15.001752 0.54764,22.367245 -0.93888,7.469166 -2.72495,14.605773 -5.29966,21.418 -2.65419,6.917303 -6.0648,13.42533 -10.19596,19.551747 -4.11444,6.213642 -8.79343,11.884966 -14.04047,17.049675 -5.31859,5.272192 -11.13237,9.9349879 -17.47736,14.0361718 -6.41223,4.21006442 -13.26074,7.654055 -20.62524,10.3882108 z M 774.72773,9.0965633 C 767.06188,11.130818 759.4455,12.286995 751.77514,12.567386 744.02132,12.877767 736.48767,12.40611 729.10921,11.126258 722.65128,10.006085 716.35479,8.2847583 710.19843,5.9422609 709.3208,5.6082056 708.44595,5.2616388 707.57388,4.9024886 700.5206,2.1364602 693.90087,-1.3095241 687.72982,-5.4947073 c -6.16948,-4.1841306 -11.78827,-9.1088667 -16.80808,-14.8279687 -5.07241,-5.597218 -9.28047,-11.875652 -12.53709,-18.886975 -3.25676,-7.011631 -5.33966,-14.281004 -6.15159,-21.835411 -0.90724,-7.510267 -0.66358,-15.057294 0.80664,-22.634053 1.47006,-7.575865 4.08582,-15.09591 7.90697,-22.522875 0.46752,-0.90963 0.95182,-1.81333 1.45294,-2.71098 3.53579,-6.30322 7.89991,-12.30048 13.09321,-17.94865 5.93144,-6.45096 12.9227,-12.34225 20.94315,-17.59163 7.91309,-5.21144 16.63975,-9.52099 26.10119,-12.85855 z M 960.04214,-230.96261 c 21.21121,-0.86259 42.22526,-1.14713 63.00406,-0.95382 14.0232,0.0799 28.0783,0.41118 42.1549,1.00297 l -5.2045,123.57649 c -0.3218,7.640487 -1.7484,14.971749 -4.211,22.000178 -2.4627,7.028787 -5.7584,13.595161 -9.8449,19.714429 -4.1845,6.117089 -9.063,11.710756 -14.6168,16.804382 -3.0498,2.844672 -6.2454,5.47487 -9.5886,7.893922 -2.7836,1.99382 -5.6688,3.843507 -8.6559,5.551496 -6.7188,3.786944 -13.83718,6.832736 -21.37319,9.167171 -7.53698,2.334731 -15.29951,3.777176 -23.34073,4.355665 z m -2.34113,209.321618 c -11.80059,-0.382375 -22.86275,-2.526957 -33.41123,-6.471458 -10.54149,-3.941886 -19.98887,-9.214319 -28.41654,-15.905548 -8.4221,-6.686821 -15.59391,-14.587302 -21.43749,-23.776821 -5.8298,-9.100398 -9.70711,-19.137438 -11.37452,-30.168777 -1.65516,-10.950274 -0.91065,-21.684014 2.49838,-32.203624 3.40763,-10.51529 8.92391,-20.12573 16.63626,-28.74695 7.70767,-8.616 17.35177,-15.92387 28.86667,-21.78382 11.5191,-5.77066 24.26934,-9.49707 38.03759,-11.08476 z m 113.58619,-85.687538 c 0.4229,-7.98883 2.0457,-15.56176 4.9472,-22.70727 2.9007,-7.14376 6.8636,-13.73563 11.9362,-19.74097 5.0717,-6.00416 11.0881,-11.34368 18.0668,-15.96991 6.9707,-4.53817 14.6766,-8.24933 23.1006,-11.08609 8.4232,-2.83654 17.3874,-4.68411 26.8434,-5.50221 9.3346,-0.74501 18.9759,-0.35403 28.8437,1.19867 9.868,1.55273 19.2991,4.16298 28.2139,7.79626 5.5748,2.34631 10.8401,5.02957 15.7824,8.03605 2.853,1.73492 5.5973,3.57775 8.2309,5.52579 7.2022,5.32718 13.4932,11.28606 18.86,17.82284 5.2403,6.59662 9.3218,13.57493 12.2739,20.88589 2.8494,7.28569 4.5413,14.8002 5.1323,22.527542 0.4905,7.701565 -0.385,15.395984 -2.5314,23.102791 l -4.7052,16.893773 c -18.6341,-5.189268 -37.4559,-9.729965 -56.4093,-13.629519 -14.1297,-2.907769 -28.3344,-5.461712 -42.5979,-7.676551 l -1.5372,9.898847 c 14.1066,2.190359 28.1511,4.716092 42.1172,7.591921 18.731,3.855513 37.3292,8.342666 55.7385,13.468885 l -15.566,55.8891704 c -17.1076,-4.7612016 -34.4114,-8.9383596 -51.8554,-12.538901 -12.4794,-2.5793835 -25.0486,-4.8569304 -37.6933,-6.8456054 -8.2016,-1.289899 -15.9577,-3.406514 -23.3436,-6.39233 -7.4766,-2.997094 -14.4653,-6.66786 -21.002,-11.052119 -6.5452,-4.296458 -12.5019,-9.248857 -17.88,-14.894521 -5.3776,-5.645104 -9.9579,-11.746447 -13.7113,-18.339683 -3.8497,-6.598379 -6.7823,-13.640755 -8.746,-21.147311 -0.8078,-7.70583 -1.644,-15.411036 -2.5084,-23.115439 z m 385.0792,134.932776 -32.595,54.382956 C 1406.6221,71.705316 1389.0577,62.17493 1371.1327,53.456298 1334.8913,35.752445 1296.8819,21.224289 1257.7822,9.781959 l 8.9708,-30.621023 c 2.7926,-9.532162 7.2026,-18.139795 13.3977,-25.732198 6.1951,-7.592382 13.6845,-13.901803 22.5237,-18.813939 8.8111,-4.82781 18.6966,-8.069675 29.6095,-9.604161 10.8124,-1.568908 22.0929,-1.116065 33.6678,1.419594 -24.9394,-9.948951 -50.3374,-18.68534 -76.0671,-26.225973 l 16.3477,-55.801119 c 47.9956,14.07458 95.0152,32.09645 140.3809,54.1555 22.3408,10.903843 44.171,22.751044 65.4366,35.48216 l -13.612,22.730777 c -5.1466,8.594337 -11.8265,15.704644 -19.8795,21.461977 -8.0556,5.75925 -16.9325,10.050497 -26.5837,12.9931648 -9.7879,2.9703329 -20.0049,4.4965553 -30.7082,4.673952 -7.1004,0.1176537 -14.1722,-0.4479125 -21.2638,-1.6899321 -3.6018,-0.6320842 -7.2089,-1.4390943 -10.8291,-2.4205874 3.2571,1.5303845 6.503,3.0840215 9.7374,4.6609598 19.5875,9.5411077 38.7576,19.9455719 57.4555,31.1531349 z m 82.0257,60.339243 c 2.9338,2.328501 5.8512,4.677977 8.7518,7.048121 l 69.661,-85.2522115 c 12.4182,10.1472935 24.5585,20.6239525 36.4062,31.4136305 13.671,12.486657 26.9353,25.334064 39.7972,38.50877 l -92.1033,89.937251 c -5.5304,5.40034 -11.6475,9.82238 -18.2953,13.33535 -6.711,3.57498 -13.6696,6.22459 -20.8517,8.00734 -7.1865,1.65634 -14.4735,2.51434 -21.8661,2.62141 -7.3932,0.10708 -14.6448,-0.54017 -21.7857,-1.92107 -0.5143,-0.10828 -1.0274,-0.22072 -1.5394,-0.33729 -6.5837,-1.50509 -12.9737,-3.70815 -19.2211,-6.61383 -6.7332,-3.13165 -13.0199,-7.07041 -18.9487,-11.85814 -5.1959,-4.19592 -9.8187,-8.82187 -13.9131,-13.93022 -4.0406,-5.17748 -7.4969,-10.62835 -10.3876,-16.39685 -2.9089,-5.88934 -5.2475,-12.03698 -7.0206,-18.47346 -1.7956,-6.55753 -2.9359,-13.23844 -3.3988,-20.05898 20.8212,13.6667 40.9556,28.46684 60.2944,44.28044 l 5.2583,-6.43023 c -0.7754,-0.63403 -1.5095,-1.1749 -2.201,-1.62288 -0.7623,-0.50543 -1.4623,-1.01471 -2.1001,-1.52862 -9.4982,-7.65241 -17.207,-16.35294 -23.3088,-26.36445 -6.2253,-9.99074 -10.6586,-20.440842 -13.291,-31.525298 -2.6304,-11.075861 -3.3863,-22.333308 -2.1206,-33.80053 1.2653,-11.462932 4.847,-22.264692 11.0436,-32.27618 l 44.8858,-72.518851 c 29.3993,18.189652 57.6798,38.084364 84.6945,59.5216832 z m 205.1082,189.548131 c 2.0621,4.97882 3.3002,10.06093 3.7146,15.2178 0.3593,5.07241 -0.057,9.88705 -1.2311,14.4333 -1.3025,4.50945 -3.3148,8.65977 -6.0193,12.457 -2.7044,3.79709 -6.0827,6.93678 -10.1132,9.44297 l -38.961,24.22646 c -15.6221,-25.02491 -32.2234,-49.32623 -49.8339,-72.6732 l 46.5123,-35.13605 c -2.2348,-2.95952 -4.4859,-5.90574 -6.7534,-8.83826 l -46.1015,35.66394 c -17.8516,-23.1161 -36.7161,-45.25033 -56.6234,-66.17193 l 33.213,-31.61349 c 3.4359,-3.27043 7.3155,-5.75663 11.6632,-7.42508 4.347,-1.66828 8.8956,-2.53989 13.6482,-2.58983 4.6192,-0.0634 9.341,0.71601 14.1485,2.35587 4.8068,1.63962 9.3656,4.10008 13.6432,7.37374 -2.693,-4.66468 -4.6361,-9.47238 -5.8335,-14.45476 -1.2624,-4.92328 -1.7043,-9.7431 -1.3093,-14.4778 0.2602,-4.74948 1.2954,-9.28798 3.1293,-13.61198 1.7699,-4.2631 4.3568,-8.04257 7.7924,-11.31279 l 33.4039,-31.795177 c 24.1418,25.355797 46.8289,51.870527 68.0914,79.313437 l -45.8929,35.50255 c 2.397,3.09678 4.7757,6.20702 7.1362,9.33032 l 46.3018,-34.97705 c 20.9232,27.66096 40.4255,56.22258 58.5369,85.45409 l -39.185,24.36569 c -4.0303,2.50608 -8.3355,4.06931 -12.9029,4.71921 -4.6425,0.69652 -9.2637,0.60792 -13.8661,-0.24837 -4.7324,-0.89619 -9.3089,-2.58567 -13.7462,-5.06001 -4.1718,-3.19513 -8.3594,-6.35232 -12.5622,-9.4706 z"
         id="text2"
         style="font-style:italic;font-weight:bold;font-size:270px;font-family:GeodezyxNFW01-Regular;-inkscape-font-specification:'GeodezyxNFW01-Regular Bold Italic';fill:#274e70;stroke-width:0.75"
         aria-label="geodezyx"
         inkscape:path-effect="#path-effect1"
         inkscape:original-d="m 324.19214,41.852356 h 82.9248 V 170.65607 q 0,11.60156 -3.03222,22.41211 -3.03223,10.94238 -8.56934,20.43457 -5.66894,9.36035 -13.44726,17.13867 -7.77833,7.77832 -17.27051,13.44726 -9.49219,5.53711 -20.30274,8.56934 -10.94238,3.03223 -22.67578,3.03223 -10.2832,0 -20.03906,-2.37305 -9.75586,-2.50488 -18.58887,-6.9873 -8.83301,-4.61426 -16.47949,-11.07422 -7.64648,-6.5918 -13.5791,-14.76563 h 71.05957 z M 314.17261,212.18439 q -16.875,-0.92285 -31.50879,-8.04199 -14.76563,-6.98731 -25.57617,-18.45704 -10.94239,-11.46972 -17.13868,-26.63086 -6.19628,-15.02929 -6.19628,-31.90429 0,-11.20606 2.90039,-21.75293 2.76855,-10.415041 8.04199,-19.775393 5.1416,-9.228515 12.52441,-17.006836 7.25098,-7.646484 16.21582,-13.447265 8.96485,-5.668946 19.24805,-9.09668 10.2832,-3.295898 21.48926,-3.955078 z M 416.8728,126.88654 q 0,-11.99707 3.16407,-22.93946 3.16406,-10.94238 8.96484,-20.434568 5.80078,-9.492187 13.84277,-17.270508 8.04199,-7.646484 17.79785,-13.183593 9.75586,-5.53711 20.83008,-8.569336 10.94238,-2.900391 22.80762,-2.900391 11.86523,0 23.07129,2.900391 11.07422,3.032226 20.83008,8.569336 9.75586,5.537109 17.92968,13.183593 8.042,7.778321 13.84278,17.270508 5.66894,9.492188 8.96484,20.434568 3.16406,10.94239 3.16406,22.93946 v 17.53418 H 502.698 v 10.01953 h 89.38476 v 58.00781 h -87.80273 q -11.86524,0 -22.80762,-3.03223 -11.07422,-3.03222 -20.83008,-8.56933 -9.75586,-5.40528 -17.79785,-13.1836 -8.04199,-7.77832 -13.71094,-17.2705 -5.80078,-9.49219 -8.96484,-20.56641 z M 695.17847,37.765442 q 11.46972,0.791016 22.0166,4.350586 10.41504,3.691406 19.51172,9.492187 8.96484,5.932618 16.34765,13.842774 7.38282,7.910156 12.65625,17.270508 5.1416,9.492187 8.042,20.170903 2.76855,10.67871 2.76855,22.0166 0,11.46972 -2.76855,22.14843 -2.9004,10.81055 -8.042,20.1709 -5.27343,9.49219 -12.65625,17.27051 -7.38281,7.91016 -16.34765,13.71094 -9.09668,5.93262 -19.51172,9.49219 -10.54688,3.6914 -22.0166,4.48242 z m -9.8877,174.418948 q -11.60156,-0.52735 -22.28027,-3.95508 -10.81055,-3.42774 -20.03906,-9.22852 -9.22852,-5.80078 -16.74317,-13.84277 -7.64648,-7.91016 -13.05176,-17.40234 -5.40527,-9.49219 -8.30566,-20.43457 -3.03223,-10.81055 -3.03223,-22.41211 0,-11.60157 3.03223,-22.41211 2.90039,-10.81055 8.30566,-20.302737 5.40528,-9.492188 13.05176,-17.53418 7.51465,-7.910156 16.74317,-13.710937 9.22851,-5.800782 20.03906,-9.228516 10.67871,-3.427734 22.28027,-3.955078 z M 874.87085,3.75177 h 82.26562 v 123.66211 q 0,11.46973 -2.90039,22.14844 -2.90039,10.67871 -8.17382,20.03906 -5.40528,9.36035 -12.91993,17.13867 -7.51464,7.91016 -16.61132,13.5791 -9.22852,5.66895 -19.77539,8.96485 -10.54688,3.2959 -21.88477,3.6914 z m -10.01953,208.95996 q -16.61133,-1.45019 -30.98145,-8.70117 -14.37011,-7.25098 -24.91699,-18.7207 -10.54687,-11.46973 -16.61133,-26.36719 -6.06445,-14.76563 -6.06445,-31.50879 0,-16.61133 6.06445,-31.50879 6.06446,-14.897461 16.61133,-26.367187 10.54688,-11.469727 24.91699,-18.720703 14.37012,-7.119141 30.98145,-8.4375 z m 102.04101,-85.82519 q 0,-11.99707 3.16407,-22.93946 3.16406,-10.94238 8.96484,-20.434568 5.80078,-9.492187 13.84277,-17.270508 8.04199,-7.646484 17.79789,-13.183593 9.7558,-5.53711 20.83,-8.569336 10.9424,-2.900391 22.8077,-2.900391 11.8652,0 23.0712,2.900391 11.0743,3.032226 20.8301,8.569336 9.7559,5.537109 17.9297,13.183593 8.042,7.778321 13.8428,17.270508 5.6689,9.492188 8.9648,20.434568 3.1641,10.94239 3.1641,22.93946 v 17.53418 h -89.3848 v 10.01953 h 89.3848 v 58.00781 h -87.8027 q -11.8653,0 -22.8077,-3.03223 -11.0742,-3.03222 -20.83,-8.56933 -9.7559,-5.40528 -17.79789,-13.1836 -8.04199,-7.77832 -13.71093,-17.2705 -5.80079,-9.49219 -8.96485,-20.56641 z m 360.70317,22.14843 v 63.41309 h -175.7373 v -31.9043 q 0,-14.89746 5.0097,-28.47656 5.0098,-13.5791 13.9746,-24.65332 8.9649,-10.94238 21.3575,-18.58887 12.2607,-7.64648 26.8945,-10.546873 h -67.2363 V 40.138489 h 175.4736 v 26.499023 q 0,15.029297 -5.0098,28.608399 -5.0097,13.579099 -13.9746,24.521489 -9.0967,11.07421 -21.4892,18.7207 -12.3926,7.64648 -27.0264,10.54687 z m 90.7031,2.90039 h 10.0195 V 41.852356 h 81.211 V 170.65607 q 0,11.60156 -3.0323,22.41211 -3.0322,10.94238 -8.5693,20.43457 -5.669,9.36035 -13.4473,17.13867 -7.7783,7.77832 -17.1386,13.44726 -9.4922,5.53711 -20.4346,8.56934 -10.9424,3.03223 -22.6758,3.03223 -10.2832,0 -20.0391,-2.37305 -9.7558,-2.50488 -18.457,-6.9873 -8.833,-4.61426 -16.4795,-11.07422 -7.7783,-6.5918 -13.8428,-14.76563 h 73.169 v -8.30566 q -1.4502,0 -2.6367,0.13183 -1.3184,0.13184 -2.5049,0.13184 -17.666,0 -33.2227,-6.72363 -15.6884,-6.5918 -27.4218,-18.19336 -11.7334,-11.60157 -18.5889,-27.15821 -6.8555,-15.55664 -6.8555,-33.22265 V 41.852356 h 80.9473 z m 245.083,-24.78515 q 6.8555,1.58203 12.7881,5.27344 5.8008,3.6914 10.0195,8.833 4.0869,5.27344 6.46,11.7334 2.373,6.45996 2.373,13.5791 v 45.87891 h -82.9248 v -58.27149 h -9.8877 v 58.27149 h -82.9248 v -45.87891 q 0,-7.11914 2.3731,-13.5791 2.373,-6.45996 6.5918,-11.7334 4.0869,-5.1416 9.8877,-8.833 5.8007,-3.69141 12.6562,-5.27344 -6.8555,-1.58203 -12.6562,-5.27344 -5.8008,-3.55957 -9.8877,-8.83301 -4.2188,-5.1416 -6.5918,-11.60156 -2.3731,-6.328125 -2.3731,-13.447266 V 41.852356 h 82.9248 v 58.007812 h 9.8877 V 41.852356 h 82.9248 v 46.142578 q 0,7.119141 -2.373,13.447266 -2.3731,6.45996 -6.46,11.60156 -4.2187,5.27344 -10.0195,8.83301 z"
         transform="translate(-39.804307,240.546)" /></g></g></svg>
