<?xml version="1.0" encoding="UTF-8" standalone="no"?>
<!-- Created with Inkscape (http://www.inkscape.org/) -->

<svg
   version="1.1"
   id="svg2"
   xml:space="preserve"
   width="2598.7466"
   height="2739.863"
   viewBox="0 0 2598.7466 2739.863"
   sodipodi:docname="geodezyx_toolbox_logo.svg"
   inkscape:version="1.1.2 (0a00cf5339, 2022-02-04)"
   xmlns:inkscape="http://www.inkscape.org/namespaces/inkscape"
   xmlns:sodipodi="http://sodipodi.sourceforge.net/DTD/sodipodi-0.dtd"
   xmlns="http://www.w3.org/2000/svg"
   xmlns:svg="http://www.w3.org/2000/svg"><defs
     id="defs6"><clipPath
       clipPathUnits="userSpaceOnUse"
       id="clipPath20"><path
         d="m 1907.156,1867.457 c 0,66.969 -103.594,128.844 -271.761,162.328 -168.168,33.485 -375.36,33.485 -543.528,0 -168.168,-33.484 -271.762,-95.359 -271.762,-162.328 0,-66.965 103.594,-128.844 271.762,-162.324 168.168,-33.485 375.36,-33.485 543.528,0 168.167,33.48 271.761,95.359 271.761,162.324 z"
         id="path18" /></clipPath><clipPath
       clipPathUnits="userSpaceOnUse"
       id="clipPath28"><path
         d="M 2.823988,51.675057 H 27.422677 V 76.261111 H 2.823988 Z"
         id="path26" /></clipPath><radialGradient
       fx="15.115"
       fy="63.965"
       cx="15.115"
       cy="63.965"
       r="12.289"
       gradientUnits="userSpaceOnUse"
       spreadMethod="pad"
       id="radialGradient34"><stop
         style="stop-opacity:1;stop-color:#ffffff"
         offset="0"
         id="stop30" /><stop
         style="stop-opacity:0;stop-color:#ffffff"
         offset="1"
         id="stop32" /></radialGradient><mask
       maskUnits="userSpaceOnUse"
       x="0"
       y="0"
       width="1"
       height="1"
       id="mask36"><g
         id="g42"><g
           clip-path="url(#clipPath28)"
           id="g40"><path
             d="M 2.823988,51.675057 H 27.422677 V 76.261111 H 2.823988 Z"
             style="fill:url(#radialGradient34);stroke:none"
             id="path38" /></g></g></mask><radialGradient
       fx="15.115"
       fy="63.965"
       cx="15.115"
       cy="63.965"
       r="12.289"
       gradientUnits="userSpaceOnUse"
       spreadMethod="pad"
       id="radialGradient50"><stop
         style="stop-opacity:1;stop-color:#000000"
         offset="0"
         id="stop46" /><stop
         style="stop-opacity:1;stop-color:#000000"
         offset="1"
         id="stop48" /></radialGradient><linearGradient
       x1="119.191"
       y1="89.129997"
       x2="116.965"
       y2="169.27901"
       gradientUnits="userSpaceOnUse"
       gradientTransform="matrix(9.782515,0,0,9.782515,247.10799,260.64081)"
       spreadMethod="pad"
       id="linearGradient68"><stop
         style="stop-opacity:1;stop-color:#ffe253"
         offset="0"
         id="stop64" /><stop
         style="stop-opacity:1;stop-color:#ffca1c"
         offset="1"
         id="stop66" /></linearGradient><clipPath
       clipPathUnits="userSpaceOnUse"
       id="clipPath80"><path
         d="M 0,0 H 1950 V 2055 H 0 Z"
         id="path78" /></clipPath><clipPath
       clipPathUnits="userSpaceOnUse"
       id="clipPath84"><path
         d="m 1675.07,1132.543 v 116.836 c -94.297,165.777 -273.429,166.098 -423.699,166.098 l -55.758,5.671 c -78.347,67.352 -80.843,175.438 -80.785,270.235 172.781,-192.793 357.086,-207.336 449.035,-206.922 183.492,0.801 269.907,-44.313 357.539,-143.578 -0.441,-1.938 0.446,-3.653 0,-5.633 -3.375,-22.113 -9.293,-45.734 -15.48,-70.383 -8.899,-35.488 -20.535,-66.734 -39.414,-90.086 -0.442,-0.441 -1.051,-0.941 -1.41,-1.383 0,0 -1.16,0 -1.379,0 -0.637,-0.773 -0.778,-2.074 -1.383,-2.793 -1.301,-0.941 -1.438,-1.937 -2.793,-2.793 -0.441,-0.441 -1.078,0.442 -1.383,0 -20.015,-12.972 -44.328,-22.656 -68.976,-26.75 -22.34,-3.691 -44.762,-6.507 -67.567,-8.445 h -46.449 z"
         id="path82" /></clipPath><clipPath
       clipPathUnits="userSpaceOnUse"
       id="clipPath88"><path
         d="M 60.096112,60.668903 H 142.69246 V 117.9139 H 60.096112 Z"
         id="path86" /></clipPath><linearGradient
       x1="94.693001"
       y1="112.511"
       x2="94.693001"
       y2="64.053001"
       gradientUnits="userSpaceOnUse"
       spreadMethod="pad"
       id="linearGradient94"><stop
         style="stop-opacity:1;stop-color:#ffffff"
         offset="0"
         id="stop90" /><stop
         style="stop-opacity:0.1649958;stop-color:#ffffff"
         offset="1"
         id="stop92" /></linearGradient><mask
       maskUnits="userSpaceOnUse"
       x="0"
       y="0"
       width="1"
       height="1"
       id="mask96"><g
         id="g102"><g
           clip-path="url(#clipPath88)"
           id="g100"><path
             d="M 60.096112,60.668903 H 142.69246 V 117.9139 H 60.096112 Z"
             style="fill:url(#linearGradient94);stroke:none"
             id="path98" /></g></g></mask><linearGradient
       x1="94.693001"
       y1="112.511"
       x2="94.693001"
       y2="64.053001"
       gradientUnits="userSpaceOnUse"
       spreadMethod="pad"
       id="linearGradient108"><stop
         style="stop-opacity:1;stop-color:#ffffff"
         offset="0"
         id="stop104" /><stop
         style="stop-opacity:1;stop-color:#ffffff"
         offset="1"
         id="stop106" /></linearGradient><clipPath
       clipPathUnits="userSpaceOnUse"
       id="clipPath138"><path
         d="M 0,0 H 1950 V 2055 H 0 Z"
         id="path136" /></clipPath><linearGradient
       x1="59.728001"
       y1="102"
       x2="142.62"
       y2="102"
       gradientUnits="userSpaceOnUse"
       gradientTransform="matrix(9.782515,0,0,9.782515,219.74621,221.5249)"
       spreadMethod="pad"
       id="linearGradient162"><stop
         style="stop-opacity:1;stop-color:#3778ae"
         offset="0"
         id="stop158" /><stop
         style="stop-opacity:1;stop-color:#366c99"
         offset="1"
         id="stop160" /></linearGradient><clipPath
       clipPathUnits="userSpaceOnUse"
       id="clipPath174"><path
         d="M 0,0 H 1950 V 2055 H 0 Z"
         id="path172" /></clipPath><clipPath
       clipPathUnits="userSpaceOnUse"
       id="clipPath178"><path
         d="m 1328.172,813.309 c -39.07,0.945 -76.586,5.441 -109.797,11.257 -111.813,19.567 -130.906,61.024 -130.906,136.543 l -8.16,132.329 -91.786,-0.01 c -76.793,0 -143.66,45.355 -164.691,132.316 -14.277,58.672 -20.742,104.609 -18.301,153.434 173.946,-197.153 360.59,-211.563 453.262,-211.145 183.484,0.801 269.902,-44.308 357.535,-143.578 v -63.344 c 0,-70.918 -60.609,-124.699 -132.316,-136.539 -51.063,-8.426 -104.606,-12.48 -154.84,-11.265 z"
         id="path176" /></clipPath><clipPath
       clipPathUnits="userSpaceOnUse"
       id="clipPath182"><path
         d="M 59.724294,60.462479 H 142.72953 V 118.42304 H 59.724294 Z"
         id="path180" /></clipPath><linearGradient
       x1="94.693001"
       y1="112.511"
       x2="94.693001"
       y2="64.053001"
       gradientUnits="userSpaceOnUse"
       spreadMethod="pad"
       id="linearGradient188"><stop
         style="stop-opacity:1;stop-color:#ffffff"
         offset="0"
         id="stop184" /><stop
         style="stop-opacity:0.1649958;stop-color:#ffffff"
         offset="1"
         id="stop186" /></linearGradient><mask
       maskUnits="userSpaceOnUse"
       x="0"
       y="0"
       width="1"
       height="1"
       id="mask190"><g
         id="g196"><g
           clip-path="url(#clipPath182)"
           id="g194"><path
             d="M 59.724294,60.462479 H 142.72953 V 118.42304 H 59.724294 Z"
             style="fill:url(#linearGradient188);stroke:none"
             id="path192" /></g></g></mask><linearGradient
       x1="94.693001"
       y1="112.511"
       x2="94.693001"
       y2="64.053001"
       gradientUnits="userSpaceOnUse"
       spreadMethod="pad"
       id="linearGradient202"><stop
         style="stop-opacity:1;stop-color:#ffffff"
         offset="0"
         id="stop198" /><stop
         style="stop-opacity:1;stop-color:#ffffff"
         offset="1"
         id="stop200" /></linearGradient><clipPath
       clipPathUnits="userSpaceOnUse"
       id="clipPath232"><path
         d="M 0,0 H 1950 V 2055 H 0 Z"
         id="path230" /></clipPath></defs><sodipodi:namedview
     id="namedview4"
     pagecolor="#ffffff"
     bordercolor="#666666"
     borderopacity="1.0"
     inkscape:pageshadow="2"
     inkscape:pageopacity="0.0"
     inkscape:pagecheckerboard="0"
     showgrid="false"
     inkscape:zoom="0.30147492"
     inkscape:cx="1277.0548"
     inkscape:cy="1371.59"
     inkscape:window-width="1920"
     inkscape:window-height="987"
     inkscape:window-x="0"
     inkscape:window-y="28"
     inkscape:window-maximized="1"
     inkscape:current-layer="g8" /><g
     id="g8"
     inkscape:groupmode="layer"
     inkscape:label="geodezyx_toolbox_logo"
     transform="matrix(1.3333333,0,0,1.3333333,0,1.1249657e-4)"><g
       id="g10"><path
         d="m 956.973,1765.891 c -29.27,-0.727 -66.614,-4.313 -97.082,-9.321 -174.649,-28.699 -332.68,-119.75 -448.969,-258.668 -50.875,-60.777 -93.93,-133.183 -123.754,-208.125 -39.234,-98.586 -57.711,-203.859 -54.641,-311.336 2.926,-102.617 24.77,-199.476 66.368,-294.289 6.957,-15.855 26.222,-53.84 35.183,-69.375 26.254,-45.5 55.899,-86.972 90.07,-126 20.946,-23.918 57.043,-59.101 82.45,-80.355 110.34,-92.297 244.644,-150.383 385.5,-166.723 59.238,-6.871 123.98,-6.34 182.25,1.5 157.207,21.153 303.347,93.106 418.023,205.817 130.641,128.406 210.164,296.589 227.32,480.761 1.504,16.129 3.825,61.848 3.254,62.383 -0.425,0.399 -70.343,1.371 -70.722,0.992 -0.164,-0.164 -0.285,-15.914 -0.739,-24.769 -2.488,-48.84 -9.113,-93.852 -20.691,-140.606 -1.43,-5.773 -2.852,-11.105 -3.156,-11.847 -0.422,-1.024 -1.809,1.039 -5.797,8.625 -29.57,56.25 -69.789,115.675 -112.07,165.593 -16.02,18.914 -43.118,48.434 -54.61,59.489 l -2.972,2.863 1.332,5.762 c 17.109,73.918 29.191,173.031 29.203,239.578 0,6.91 0.281,12.562 0.625,12.562 1.199,0 30.015,-31.875 44.074,-48.75 48.894,-58.707 90.762,-128.379 119.199,-198.375 l 3.961,-9.75 0.82,-16.597 c 0.453,-9.125 0.821,-22.711 0.821,-30.188 v -13.59 h 23.882 c 13.133,0 29.047,-0.222 35.36,-0.496 l 11.48,-0.496 -0.453,26.934 c -0.828,49.484 -5.484,91.683 -15.574,141.164 -21.773,106.801 -67.063,209.613 -131.195,297.851 -59.743,82.2 -136.176,152.383 -222,203.848 -33.633,20.168 -71.446,38.836 -107.586,53.113 -92.391,36.504 -188.129,53.328 -289.164,50.821 z m 28.875,-73.114 c -15.438,-7.902 -43.43,-24.086 -60.75,-35.125 l -9,-5.734 -10.875,0.93 c -26.387,2.265 -37.106,2.718 -73.125,3.086 -34.493,0.355 -50.496,0.01 -78,-1.684 l -6,-0.371 3,1.211 c 6.422,2.59 29.914,10.312 43.125,14.172 42.988,12.562 87.136,20.625 131.386,23.992 21.231,1.613 21.102,1.609 44.114,1.723 l 20.625,0.105 z m 155.625,-17.882 c 9.781,-2.422 28.254,-7.868 42.375,-12.485 18.949,-6.199 49.941,-18.023 51.609,-19.691 0.363,-0.364 -5.672,-14.481 -13.742,-32.141 l -14.387,-31.492 -8.363,3.371 c -28.324,11.414 -66.539,24.613 -97.242,33.586 -15.508,4.531 -58.743,15.551 -69.375,17.684 l -4.5,0.906 11.25,5.484 c 13.664,6.668 33.625,15.238 51.707,22.203 17.437,6.715 41.73,14.856 43.168,14.461 0.621,-0.168 3.996,-1.015 7.5,-1.886 z m 168.992,-69.508 c 22.887,-13.352 58.828,-37.637 73.047,-49.36 1.648,-1.359 10.586,-42.328 14.804,-67.875 1.055,-6.394 2.102,-12.418 2.321,-13.386 0.336,-1.477 -1.282,-0.61 -9.942,5.324 -31.734,21.73 -68.812,43.863 -103.91,62.027 -8.144,4.215 -14.812,7.809 -14.812,7.988 0,0.176 5.277,11.875 11.73,25.997 6.449,14.121 12.68,27.785 13.844,30.363 1.164,2.578 2.32,4.687 2.574,4.687 0.254,0 4.91,-2.593 10.344,-5.765 z m -484.367,-22.508 c -37.493,-34.156 -61.223,-58.746 -89.887,-93.137 -24.125,-28.945 -49.305,-63.828 -70.441,-97.59 l -6.336,-10.125 -31.043,0.262 c -72.621,0.613 -141.93,-4.48 -208.672,-15.34 -9.008,-1.465 -16.512,-2.527 -16.68,-2.363 -0.379,0.383 9.301,15.844 19.18,30.633 33.027,49.441 75.191,97.168 120.711,136.636 l 14.113,12.235 13.777,4.242 c 65.59,20.195 131.426,32.086 198.278,35.816 21.515,1.2 21.906,1.211 41.625,1.344 l 18.375,0.121 z m 126,-6.637 c 70.078,-9.863 142.757,-29.086 211.742,-55.996 10.683,-4.168 13.668,-5.621 13.41,-6.539 -0.332,-1.203 -99.516,-218.453 -99.961,-218.957 -0.133,-0.148 -9.457,3.188 -20.715,7.414 -94.629,35.539 -197.433,60.231 -298.992,71.809 l -18.227,2.078 9.028,12.937 c 50.879,72.953 111.012,135.157 177.308,183.426 7.168,5.219 9.231,6.371 10.875,6.086 1.118,-0.195 8.106,-1.211 15.532,-2.258 z m 304.062,-97.937 c 47.863,-24.852 91.926,-52.895 135.438,-86.196 7.425,-5.679 14.781,-11.457 16.343,-12.832 l 2.844,-2.5 0.703,-15.375 c 2.352,-51.543 -0.3,-115.695 -7.144,-172.843 -3.059,-25.524 -11.504,-78.539 -12.703,-79.739 -0.161,-0.16 -6.793,5.004 -14.735,11.477 -63.984,52.117 -137.933,99.105 -215.019,136.633 -10.61,5.168 -19.371,9.465 -19.469,9.55 -0.133,0.118 92.801,203.801 99.004,216.985 0.433,0.93 0.965,1.687 1.172,1.687 0.211,0 6.316,-3.082 13.566,-6.847 z m 223.047,-12.465 c 32.715,-37.36 62.25,-79.602 86.348,-123.504 6.5,-11.844 17.953,-34.34 19.277,-37.863 0.91,-2.43 1.141,-2.672 -9.551,10.023 -21.765,25.84 -61.859,67.133 -85.117,87.66 l -10.91,9.625 -1.297,14 c -1.277,13.809 -4.562,41.297 -5.414,45.309 -0.242,1.133 -0.281,2.062 -0.09,2.062 0.195,0 3.235,-3.289 6.754,-7.312 z M 620.223,1311.266 c 0,-0.348 -3,-6.844 -6.664,-14.438 -35.731,-73.965 -64.016,-159.16 -81.512,-245.488 -1.414,-6.977 -2.684,-12.797 -2.82,-12.938 -0.266,-0.261 -4.754,-0.547 -28.254,-1.785 -60.227,-3.172 -128.938,-13.91 -184.633,-28.855 -6.879,-1.848 -12.703,-3.36 -12.938,-3.36 -0.679,0 -0.5,17.825 0.332,33 3.543,64.817 14.731,125.356 34.114,184.602 9.148,27.965 22.175,61.094 24.261,61.707 0.684,0.203 7.653,1.73 15.489,3.398 65.722,13.985 133.812,22.075 201.953,23.989 29.644,0.836 40.672,0.879 40.672,0.168 z m 109.125,-5.411 c 104.035,-10.285 206.574,-33.996 303,-70.07 7.425,-2.777 13.906,-5.269 14.402,-5.539 0.617,-0.332 -17.215,-40.125 -56.848,-126.851 -31.761,-69.504 -58.554,-128.133 -59.539,-130.29 l -1.793,-3.921 -5.109,1.933 c -61.715,23.352 -132.293,42.211 -200.113,53.473 -36.387,6.043 -67.465,9.426 -114.606,12.484 l -7.355,0.477 0.472,2.363 c 17.395,86.652 49.176,177.297 88.766,253.141 l 7.973,15.281 7.875,-0.5 c 4.332,-0.274 14.625,-1.164 22.875,-1.981 z m 408.777,-116.152 c 75.496,-37.625 140.855,-79.891 201.695,-130.43 16.399,-13.621 33.403,-28.882 33.403,-29.976 0,-0.637 -2.227,-8.945 -4.95,-18.465 -19.613,-68.594 -49.054,-142.477 -80.757,-202.668 -14.254,-27.059 -24.321,-44.723 -25.286,-44.367 -0.343,0.125 -6.14,5.141 -12.878,11.144 -58.223,51.864 -116.047,92.766 -187.379,132.543 -11.68,6.512 -52.012,27.02 -61.672,31.356 l -6.543,2.937 59.387,129.938 c 32.664,71.465 59.753,129.937 60.199,129.937 0.445,0 11.597,-5.375 24.781,-11.949 z m 301.598,-226.738 c 63.347,-71.031 114.437,-151.223 150.316,-235.934 l 3.602,-8.496 -2.676,-6.129 c -1.469,-3.371 -6.113,-13.215 -10.317,-21.879 -25.308,-52.168 -58.898,-103.304 -97.046,-147.75 -6.641,-7.738 -28.657,-31.875 -29.075,-31.875 -0.105,0 -3.484,6.16 -7.507,13.688 -33.883,63.379 -74.934,121.93 -123.954,176.801 -8.281,9.269 -8.953,10.238 -8.05,11.625 3.246,4.992 17.691,30.093 25.039,43.511 26.769,48.891 50.941,102.387 70.699,156.496 6.258,17.133 16,46.036 18.355,54.442 0.723,2.578 1.563,4.687 1.868,4.687 0.304,0 4.242,-4.132 8.746,-9.187 z M 517.918,962.59 c -4.895,-41.379 -7.184,-81.848 -7.184,-126.938 0,-37.851 0.961,-60.023 4.211,-96.957 0.68,-7.746 1.071,-14.25 0.867,-14.453 -0.203,-0.203 -5.656,-1.199 -12.117,-2.211 -20.066,-3.14 -43.633,-8.269 -60.847,-13.238 -17.43,-5.027 -52.946,-17.852 -65.301,-23.574 -0.453,-0.211 -3.152,4.508 -6.141,10.719 -33.144,68.921 -55.304,146.746 -64.23,225.578 -0.606,5.355 -1.02,9.82 -0.918,9.922 0.554,0.554 26.176,7.582 39.09,10.722 56.523,13.738 111.336,21.641 170.918,24.633 l 2.164,0.109 z m 108.305,2.375 c 84.379,-6.153 168.82,-23.805 251.625,-52.598 16.656,-5.793 21.023,-7.515 20.863,-8.226 -0.203,-0.895 -99.074,-217.075 -99.457,-217.457 -0.176,-0.176 -3.152,0.738 -6.613,2.035 -62.411,23.347 -123.539,36.023 -187.758,38.937 -17.391,0.789 -18.371,0.989 -18.399,3.731 -0.004,0.609 -0.679,8.879 -1.492,18.375 -2.308,26.863 -3.015,41.277 -3.512,71.64 -0.738,45.012 1.606,90.18 7.016,135.286 l 1.25,10.41 10.551,-0.504 c 5.805,-0.278 17.469,-1.012 25.926,-1.629 z M 991.074,864.574 c 76.895,-38.269 142.563,-82.113 205.149,-136.969 14.152,-12.406 26.55,-24.007 26.843,-25.125 0.36,-1.355 -17.878,-26.484 -34.257,-47.203 -32.344,-40.91 -72.641,-82.949 -110.621,-115.402 -9.836,-8.406 -23.993,-19.937 -25.793,-21.012 -0.633,-0.379 -5.809,4.071 -15.375,13.211 -21.665,20.703 -29.559,27.75 -47.797,42.656 -35.164,28.75 -82.223,59.981 -117.973,78.297 -5.082,2.602 -7.23,4.094 -7.031,4.875 0.156,0.618 22.695,50.149 50.082,110.063 33.203,72.637 50.164,108.937 50.898,108.937 0.606,0 12.25,-5.547 25.875,-12.328 z M 628.098,655.219 c 37.91,-3.485 77.629,-11.867 115.875,-24.461 10.859,-3.574 24.757,-8.613 25.324,-9.18 0.293,-0.289 -91.195,-200.762 -92.016,-201.633 -0.301,-0.32 -3.785,6.09 -7.738,14.25 -26.711,55.117 -48.855,118.239 -63.223,180.207 -3.015,13.008 -8.597,40.184 -8.597,41.856 0,1.242 8.785,0.941 30.375,-1.039 z M 528.676,640.09 c 12.933,-68.617 33.465,-136.82 59.625,-198.074 2.351,-5.508 4.14,-10.145 3.98,-10.309 -0.355,-0.352 -23.07,16.699 -32.058,24.066 -56.965,46.7 -102.899,97.68 -143.426,159.172 -5.914,8.973 -6.899,7.391 8.254,13.278 19.344,7.511 42.234,14.39 63.922,19.207 9.711,2.156 31.273,5.851 34.535,5.918 l 2.656,0.054 z m 760.847,-8.063 c 39.473,-46.972 73.149,-97.73 101.102,-152.379 l 9.656,-18.875 -7.343,-5.941 c -53.778,-43.516 -117.016,-79.773 -182.86,-104.844 -12.59,-4.797 -30.191,-10.836 -31.574,-10.836 -0.496,0 -4.43,6.836 -8.738,15.188 -17.887,34.687 -36.516,64.215 -61.02,96.738 -5.512,7.313 -10.023,13.43 -10.023,13.594 0,0.164 6.668,5.848 14.812,12.629 21.414,17.828 34.223,29.433 54.461,49.351 34.859,34.305 65.879,70.028 95.332,109.77 l 10.477,14.14 2.504,-2.89 c 1.375,-1.594 7.324,-8.633 13.214,-15.645 z m -432.3,-51.937 c 44.156,-25.379 90.355,-59.906 124.605,-93.117 10.309,-9.996 10.707,-10.496 9.277,-11.571 -2.238,-1.679 -23.136,-14.156 -32.39,-19.336 C 901.73,424.164 840.07,400.34 776.598,385.699 c -17.711,-4.086 -39.692,-8.23 -39.969,-7.531 -0.121,0.301 21.781,48.691 48.668,107.527 l 48.891,106.977 7.957,-4.246 c 4.375,-2.332 11.16,-6.086 15.078,-8.336 z m 196.808,-173.813 c 18.668,-24.875 35.449,-51.199 49.309,-77.351 4.324,-8.164 4.387,-8.36 2.719,-8.778 -4.106,-1.023 -33.477,-5.82 -44.086,-7.195 -32.043,-4.156 -59.383,-5.617 -94.875,-5.066 -36.524,0.562 -62.551,2.769 -95.563,8.101 -14.832,2.391 -42.551,7.95 -44.172,8.852 -0.59,0.332 1.469,1.222 5.145,2.23 3.375,0.926 12.285,3.664 19.804,6.09 63.083,20.344 119.215,46.473 174.333,81.145 l 13.953,8.781 2.496,-2.781 c 1.371,-1.528 6.293,-7.84 10.937,-14.028 z"
         style="fill:#00007e;fill-opacity:1;fill-rule:nonzero;stroke:none"
         id="path12" /><g
         id="g14"><g
           id="g16"
           clip-path="url(#clipPath20)"><g
             id="g22"
             transform="matrix(44.23,0,0,15.252549,695.095,891.82364)"><g
               id="g24" /><g
               id="g44"
               mask="url(#mask36)"><path
                 d="m 1907.156,1867.457 c 0,66.969 -103.594,128.844 -271.761,162.328 -168.168,33.485 -375.36,33.485 -543.528,0 -168.168,-33.484 -271.762,-95.359 -271.762,-162.328 0,-66.965 103.594,-128.844 271.762,-162.324 168.168,-33.485 375.36,-33.485 543.528,0 168.167,33.48 271.761,95.359 271.761,162.324 z"
                 style="fill:url(#radialGradient50);stroke:none"
                 id="path52" /></g></g></g></g><g
         id="g54"><g
           id="g56"><g
             id="g62"><path
               d="m 1642.289,1796.984 c 0,75.52 -65.543,113.77 -132.062,132.848 -100.079,28.758 -180.391,24.356 -264.028,0 -69.851,-20.352 -132.066,-61.93 -132.066,-132.848 v -249.16 c 0,-71.707 59.769,-132.945 132.066,-132.945 l 259.805,-16.891 c 87.945,0 145.422,-54.894 145.422,-144.992 l 23.926,-120.441 h 99 c 76.89,0 113.089,57.133 132.066,132.843 26.414,105.168 27.582,183.821 0,265.797 -26.707,79.629 -55.285,132.844 -132.066,132.844 h -396.09 v -0.551 c 227.847,0.551 264.027,-91.679 264.027,133.465 z"
               style="fill:url(#linearGradient68);stroke:none"
               id="path70" /></g></g></g><path
         d="m 1477.258,1813.516 c 0,-27.489 22.207,-49.793 49.5,-49.793 27.64,0 49.496,22.304 49.496,49.793 0,27.586 -22.106,49.89 -49.496,49.89 -27.293,0 -49.5,-22.304 -49.5,-49.89 z"
         style="fill:#ffffff;fill-opacity:1;fill-rule:nonzero;stroke:none"
         id="path72" /><g
         id="g74"><g
           id="g76" /><g
           id="g126"><g
             clip-path="url(#clipPath80)"
             opacity="0.837"
             id="g124"><g
               id="g122"><g
                 id="g120"><g
                   clip-path="url(#clipPath84)"
                   id="g118"><g
                     transform="matrix(9.782515,0,0,9.782515,526.10889,538.50555)"
                     id="g116"><g
                       id="g110" /><g
                       mask="url(#mask96)"
                       id="g114"><path
                         d="m 1675.07,1132.543 v 116.836 c -94.297,165.777 -273.429,166.098 -423.699,166.098 l -55.758,5.671 c -78.347,67.352 -80.843,175.438 -80.785,270.235 172.781,-192.793 357.086,-207.336 449.035,-206.922 183.492,0.801 269.907,-44.313 357.539,-143.578 -0.441,-1.938 0.446,-3.653 0,-5.633 -3.375,-22.113 -9.293,-45.734 -15.48,-70.383 -8.899,-35.488 -20.535,-66.734 -39.414,-90.086 -0.442,-0.441 -1.051,-0.941 -1.41,-1.383 0,0 -1.16,0 -1.379,0 -0.637,-0.773 -0.778,-2.074 -1.383,-2.793 -1.301,-0.941 -1.438,-1.937 -2.793,-2.793 -0.441,-0.441 -1.078,0.442 -1.383,0 -20.015,-12.972 -44.328,-22.656 -68.976,-26.75 -22.34,-3.691 -44.762,-6.507 -67.567,-8.445 h -46.449 z"
                         style="fill:url(#linearGradient108);stroke:none"
                         id="path112" /></g></g></g></g></g></g></g></g><g
         id="g128"><path
           d="m 1655.52,1796.969 c 0,75.523 -78.774,113.781 -145.293,132.855 -100.071,28.75 -180.375,24.356 -264.028,0 -69.855,-20.344 -132.715,-61.922 -132.828,-132.828 l -0.441,-255.926 c -0.278,-84.949 63.636,-138.492 134.043,-138.218 l 234.054,0.414 c 89.84,0 177.196,-91.223 176.946,-181.067 v -89.48 h 116.379 c 76.89,0 113.066,57.14 132.054,132.855 26.43,105.156 27.645,183.805 0,265.793 -26.703,79.617 -55.285,142.301 -132.054,142.313 h -396.133 v -0.555 l 277.265,0.941 z"
           style="fill:none;stroke:#bb9400;stroke-width:45.0593;stroke-linecap:butt;stroke-linejoin:miter;stroke-miterlimit:4;stroke-dasharray:none;stroke-opacity:1"
           id="path130" /></g><g
         id="g132"><g
           id="g134" /><g
           id="g146"><g
             clip-path="url(#clipPath138)"
             opacity="0.384"
             id="g144"><g
               id="g142"><path
                 d="m 1680.574,1155.066 v 66.161 c 0,102.957 -96.656,203.89 -206.801,203.89 h -228.035 c -78.8,0 -111.082,59.625 -110.691,122.68 l 1.547,249.152 c 0.277,28.875 11.058,50.406 31.738,68.973 20.676,18.562 51.766,32.703 84.457,42.23 80.621,23.477 154.145,27.707 250.559,0 31.312,-8.976 72.964,-25.988 93.922,-44.129 20.957,-18.148 36.152,-35.828 36.152,-67.074 v -100.344 h -277.875 v -46.425 l 419.473,1.382 c 33.195,0 49.425,-13.058 65.914,-32.16 16.488,-19.101 30.82,-56.582 43.882,-95.535 26.137,-77.668 25.809,-150.633 0,-253.379 -8.992,-35.875 -22.05,-64.855 -39.414,-84.457 -17.359,-19.601 -37.511,-30.965 -70.382,-30.965 z m 45.043,45.043 h 49.391 c 14.383,0 33.152,11.594 36.601,15.485 10.02,11.316 21.563,34.238 29.563,66.156 24.59,97.902 24.644,158.996 1.383,228.039 -12.489,37.234 -25.45,72.266 -35.188,82.93 -8.805,9.386 -27.644,14.078 -32.379,14.078 l -132.32,-1.41 h -332.203 v 136.515 h 277.875 v 55.289 c 0,20.098 -26.902,32.59 -31.535,36.598 -13.469,11.664 -37.34,23.106 -64.75,30.965 -89.094,25.609 -152.039,21.726 -226.633,0 -28.227,-8.223 -52.692,-20.285 -66.535,-32.051 -13.844,-11.765 -14.696,-21.398 -17.246,-35.523 l -1.547,-249.149 c -0.36,-55.91 17.847,-77.636 65.648,-77.636 h 228.035 c 136.098,0 251.844,-120.254 251.844,-248.938 0,-7.113 0,-14.234 0,-21.348 z"
                 style="fill:#ffffff;fill-opacity:1;fill-rule:nonzero;stroke:none"
                 id="path140" /></g></g></g></g><g
         id="g148"><g
           id="g150"><g
             id="g156"><path
               d="m 1086.77,960.496 c 0,-75.519 20.246,-116.609 132.058,-136.176 75.918,-13.304 173.254,-14.965 264.035,0 71.707,11.84 132.067,65.25 132.067,136.176 v 249.164 c 0,73.074 -58.602,132.942 -132.067,132.942 l -239.453,13.234 c -89.605,0 -182.144,78.289 -182.144,164.676 l -7.563,104.41 h -90.781 c -76.793,0 -121.5,-55.367 -140.281,-132.848 -25.336,-104.078 -24.258,-166.105 0,-265.785 21.035,-86.969 88.242,-132.851 157.57,-132.851 h 99.098 c 0,0 247.269,-0.965 0,-0.883 V 960.496 Z"
               style="fill:url(#linearGradient162);stroke:none"
               id="path164" /></g></g></g><path
         d="m 1152.801,943.961 c 0,-27.645 22.113,-49.891 49.5,-49.891 27.289,0 49.5,22.301 49.5,49.891 0,27.488 -22.211,49.793 -49.5,49.793 -27.391,0 -49.5,-22.305 -49.5,-49.793 z"
         style="fill:#ffffff;fill-opacity:1;fill-rule:nonzero;stroke:none"
         id="path166" /><g
         id="g168"><g
           id="g170" /><g
           id="g220"><g
             clip-path="url(#clipPath174)"
             opacity="0.377"
             id="g218"><g
               id="g216"><g
                 id="g214"><g
                   clip-path="url(#clipPath178)"
                   id="g212"><g
                     transform="matrix(9.782515,0,0,9.782515,219.74621,221.5249)"
                     id="g210"><g
                       id="g204" /><g
                       mask="url(#mask190)"
                       id="g208"><path
                         d="m 1328.172,813.309 c -39.07,0.945 -76.586,5.441 -109.797,11.257 -111.813,19.567 -130.906,61.024 -130.906,136.543 l -8.16,132.329 -91.786,-0.01 c -76.793,0 -143.66,45.355 -164.691,132.316 -14.277,58.672 -20.742,104.609 -18.301,153.434 173.946,-197.153 360.59,-211.563 453.262,-211.145 183.484,0.801 269.902,-44.308 357.535,-143.578 v -63.344 c 0,-70.918 -60.609,-124.699 -132.316,-136.539 -51.063,-8.426 -104.606,-12.48 -154.84,-11.265 z"
                         style="fill:url(#linearGradient202);stroke:none"
                         id="path206" /></g></g></g></g></g></g></g></g><g
         id="g222"><path
           d="m 1217.008,830.77 c 100.074,-28.762 180.39,-24.36 264.027,0 69.848,20.347 132.102,61.921 132.063,132.847 v 269.016 c 0,37.765 -54.586,125.203 -131.93,125.203 h -245.996 c -69.063,0 -165.781,75.238 -165.781,165.34 v 104.871 H 953.012 c -76.891,0 -113.09,-57.133 -132.067,-132.852 -26.414,-105.156 -27.644,-183.808 0,-265.789 26.707,-79.629 55.289,-142.301 132.067,-142.301 h 396.093 v 0.528 l -277.269,-0.942 0.527,-134.714 c -0.718,-55.192 66.746,-98.204 144.641,-121.207 v 0 z"
           style="fill:none;stroke:#274e70;stroke-width:45.0593;stroke-linecap:butt;stroke-linejoin:miter;stroke-miterlimit:4;stroke-dasharray:none;stroke-opacity:1"
           id="path224" /></g><g
         id="g226"><g
           id="g228" /><g
           id="g240"><g
             clip-path="url(#clipPath232)"
             opacity="0.165"
             id="g238"><g
               id="g236"><path
                 d="m 1046.66,1605.531 v -77.293 c 0,-102.961 93.86,-194.297 194.781,-194.297 h 240.055 c 59.57,0 111.238,-61.953 110.692,-121.14 l -2.305,-249.153 c -0.27,-28.875 -10.289,-50.406 -30.973,-68.972 -20.672,-18.567 -51.765,-32.707 -84.457,-42.231 -80.625,-23.48 -154.144,-27.707 -250.558,0 -31.309,8.981 -72.969,25.985 -93.922,44.133 -20.961,18.145 -36.149,35.824 -36.149,67.07 v 100.344 h 277.871 v 46.449 l -419.472,-1.41 c -33.172,0 -49.426,13.063 -65.914,32.164 -16.489,19.094 -30.821,56.578 -43.883,95.532 -26.137,77.668 -25.805,150.632 0,253.375 8.992,35.875 22.051,64.855 39.414,84.457 17.363,19.605 37.515,30.968 70.383,30.968 h 94.437 v 0 z m -45.047,-45.047 h -49.39 c -14.375,0 -33.172,-11.593 -36.598,-15.48 -10.023,-11.316 -21.566,-34.242 -29.566,-66.16 -24.586,-97.903 -24.641,-158.989 -1.395,-228.035 12.488,-37.235 25.445,-72.266 35.191,-82.653 8.801,-9.383 27.391,-14.078 32.375,-14.078 l 464.52,1.41 v -136.543 h -277.871 v -55.289 c 0,-20.097 26.902,-32.59 31.531,-36.597 13.473,-11.661 37.348,-23.106 64.754,-30.961 89.094,-25.602 152.043,-21.723 226.633,0 28.23,8.226 52.691,20.289 66.156,32.379 4.793,3.734 7.317,8.218 11.274,12.664 5.492,6.55 4.289,15.211 5.558,22.523 v 249.152 c 0,34.161 -29.203,76.094 -63.34,76.094 h -240.054 c -126.879,0 -239.829,110.656 -239.829,239.344 0,10.711 0,32.23 0,32.23 z"
                 style="fill:#ffffff;fill-opacity:1;fill-rule:nonzero;stroke:none"
                 id="path234" /></g></g></g></g><text
         transform="rotate(-103.50404,599.29199,547.91535)"
         style="font-style:italic;font-variant:normal;font-weight:bold;font-size:270px;font-family:'Ubuntu Mono';-inkscape-font-specification:UbuntuMono-BoldItalic;writing-mode:lr-tb;fill:#274e70;fill-opacity:1;fill-rule:nonzero;stroke:none"
         id="text244"><tspan
           x="0"
           y="0"
           id="tspan242">G</tspan></text><text
         transform="rotate(-94.216313,610.95139,482.26844)"
         style="font-style:italic;font-variant:normal;font-weight:bold;font-size:270px;font-family:'Ubuntu Mono';-inkscape-font-specification:UbuntuMono-BoldItalic;writing-mode:lr-tb;fill:#274e70;fill-opacity:1;fill-rule:nonzero;stroke:none"
         id="text248"><tspan
           x="0"
           y="0"
           id="tspan246">e</tspan></text><text
         transform="rotate(-84.947548,624.33051,405.94035)"
         style="font-style:italic;font-variant:normal;font-weight:bold;font-size:270px;font-family:'Ubuntu Mono';-inkscape-font-specification:UbuntuMono-BoldItalic;writing-mode:lr-tb;fill:#274e70;fill-opacity:1;fill-rule:nonzero;stroke:none"
         id="text252"><tspan
           x="0"
           y="0"
           id="tspan250">o</tspan></text><text
         transform="rotate(-75.659884,640.48892,314.74959)"
         style="font-style:italic;font-variant:normal;font-weight:bold;font-size:270px;font-family:'Ubuntu Mono';-inkscape-font-specification:UbuntuMono-BoldItalic;writing-mode:lr-tb;fill:#274e70;fill-opacity:1;fill-rule:nonzero;stroke:none"
         id="text256"><tspan
           x="0"
           y="0"
           id="tspan254">d</tspan></text><text
         transform="rotate(-66.321765,660.95166,202.09733)"
         style="font-style:italic;font-variant:normal;font-weight:bold;font-size:270px;font-family:'Ubuntu Mono';-inkscape-font-specification:UbuntuMono-BoldItalic;writing-mode:lr-tb;fill:#274e70;fill-opacity:1;fill-rule:nonzero;stroke:none"
         id="text260"><tspan
           x="0"
           y="0"
           id="tspan258">e</tspan></text><text
         transform="rotate(-56.912251,688.07359,56.900098)"
         style="font-style:italic;font-variant:normal;font-weight:bold;font-size:270px;font-family:'Ubuntu Mono';-inkscape-font-specification:UbuntuMono-BoldItalic;writing-mode:lr-tb;fill:#274e70;fill-opacity:1;fill-rule:nonzero;stroke:none"
         id="text264"><tspan
           x="0"
           y="0"
           id="tspan262">Z</tspan></text><text
         transform="rotate(-47.404228,726.20126,-141.19485)"
         style="font-style:italic;font-variant:normal;font-weight:bold;font-size:270px;font-family:'Ubuntu Mono';-inkscape-font-specification:UbuntuMono-BoldItalic;writing-mode:lr-tb;fill:#274e70;fill-opacity:1;fill-rule:nonzero;stroke:none"
         id="text268"><tspan
           x="0"
           y="0"
           id="tspan266">Y</tspan></text><text
         transform="rotate(-37.796709,783.75051,-433.66562)"
         style="font-style:italic;font-variant:normal;font-weight:bold;font-size:270px;font-family:'Ubuntu Mono';-inkscape-font-specification:UbuntuMono-BoldItalic;writing-mode:lr-tb;fill:#274e70;fill-opacity:1;fill-rule:nonzero;stroke:none"
         id="text272"><tspan
           x="0"
           y="0"
           id="tspan270">X</tspan></text><text
         transform="rotate(-18.282038,1082.4496,-1918.7714)"
         style="font-style:italic;font-variant:normal;font-weight:bold;font-size:270px;font-family:'Ubuntu Mono';-inkscape-font-specification:UbuntuMono-BoldItalic;writing-mode:lr-tb;fill:#274e70;fill-opacity:1;fill-rule:nonzero;stroke:none"
         id="text276"><tspan
           x="0"
           y="0"
           id="tspan274">T</tspan></text><text
         transform="rotate(-8.4155436,1753.535,-5235.1492)"
         style="font-style:italic;font-variant:normal;font-weight:bold;font-size:270px;font-family:'Ubuntu Mono';-inkscape-font-specification:UbuntuMono-BoldItalic;writing-mode:lr-tb;fill:#274e70;fill-opacity:1;fill-rule:nonzero;stroke:none"
         id="text280"><tspan
           x="0"
           y="0"
           id="tspan278">o</tspan></text><text
         transform="rotate(1.4825857,-6515.1058,35601.221)"
         style="font-style:italic;font-variant:normal;font-weight:bold;font-size:270px;font-family:'Ubuntu Mono';-inkscape-font-specification:UbuntuMono-BoldItalic;writing-mode:lr-tb;fill:#274e70;fill-opacity:1;fill-rule:nonzero;stroke:none"
         id="text284"><tspan
           x="0"
           y="0"
           id="tspan282">o</tspan></text><text
         transform="rotate(11.37245,-396.96257,5385.8512)"
         style="font-style:italic;font-variant:normal;font-weight:bold;font-size:270px;font-family:'Ubuntu Mono';-inkscape-font-specification:UbuntuMono-BoldItalic;writing-mode:lr-tb;fill:#274e70;fill-opacity:1;fill-rule:nonzero;stroke:none"
         id="text288"><tspan
           x="0"
           y="0"
           id="tspan286">l</tspan></text><text
         transform="rotate(21.225026,31.054641,3272.5788)"
         style="font-style:italic;font-variant:normal;font-weight:bold;font-size:270px;font-family:'Ubuntu Mono';-inkscape-font-specification:UbuntuMono-BoldItalic;writing-mode:lr-tb;fill:#274e70;fill-opacity:1;fill-rule:nonzero;stroke:none"
         id="text292"><tspan
           x="0"
           y="0"
           id="tspan290">b</tspan></text><text
         transform="rotate(30.999176,188.10169,2497.2407)"
         style="font-style:italic;font-variant:normal;font-weight:bold;font-size:270px;font-family:'Ubuntu Mono';-inkscape-font-specification:UbuntuMono-BoldItalic;writing-mode:lr-tb;fill:#274e70;fill-opacity:1;fill-rule:nonzero;stroke:none"
         id="text296"><tspan
           x="0"
           y="0"
           id="tspan294">o</tspan></text><text
         transform="rotate(40.684305,270.06991,2091.9126)"
         style="font-style:italic;font-variant:normal;font-weight:bold;font-size:270px;font-family:'Ubuntu Mono';-inkscape-font-specification:UbuntuMono-BoldItalic;writing-mode:lr-tb;fill:#274e70;fill-opacity:1;fill-rule:nonzero;stroke:none"
         id="text300"><tspan
           x="0"
           y="0"
           id="tspan298">x</tspan></text></g></g></svg>
